<?xml version="1.0" encoding="UTF-8"?>
<!DOCTYPE svg PUBLIC "-//W3C//DTD SVG 1.1//EN" "http://www.w3.org/Graphics/SVG/1.1/DTD/svg11.dtd">
<svg version="1.1"
  xmlns="http://www.w3.org/2000/svg"
  xmlns:xlink="http://www.w3.org/1999/xlink" x="0" y="0" width="1920" height="1080" viewBox="0, 0, 1920, 1080">
  <g id="Layer_2" display="none">
    <path d="M0,0 L1920,0 L1920,1080 L0,1080 L0,0 z" fill="currentColor"/>
  </g>
  <g id="Layer_3" display="none">
    <g>
      <path d="M0.5,0.5 L1920.5,0.5 L1920.5,730.5 L0.5,730.5 L0.5,0.5 z" fill="currentColor"/>
      <path d="M0.5,0.5 L1920.5,0.5 L1920.5,730.5 L0.5,730.5 L0.5,0.5 z" fill-opacity="0" stroke="#1E1E1E" stroke-width="1"/>
    </g>
    <g>
      <path d="M0.5,726.5 L1920.5,726.5 L1920.5,1076.5 L0.5,1076.5 L0.5,726.5 z" fill="currentColor"/>
      <path d="M0.5,726.5 L1920.5,726.5 L1920.5,1076.5 L0.5,1076.5 L0.5,726.5 z" fill-opacity="0" stroke="#1E1E1E" stroke-width="1"/>
    </g>
  </g>
  <g id="Layer_4">
    <g id="Brackets">
      <path d="M264.886,594.971 L289.54,594.971 C298.327,594.971 305.45,602.094 305.45,610.881 L305.45,699.029 C305.45,742.965 341.066,778.581 385.002,778.581 L434.848,778.581 C438.363,778.581 441.212,775.732 441.212,772.217 L441.212,682.957 C441.212,679.442 438.362,676.592 434.848,676.592 L399.789,676.592 C391.002,676.592 383.879,669.469 383.879,660.682 L383.879,419.318 C383.879,410.531 391.002,403.407 399.789,403.407 L434.848,403.407 C438.363,403.407 441.212,400.558 441.212,397.043 L441.212,307.783 C441.212,304.268 438.362,301.419 434.848,301.419 L385.002,301.419 C341.066,301.419 305.45,337.035 305.45,380.97 L305.45,473.095 C305.45,481.882 298.327,489.006 289.54,489.006 L264.886,489.006 C261.371,489.006 258.522,491.855 258.522,495.37 L258.522,588.607 C258.522,592.122 261.371,594.971 264.886,594.971" fill="currentColor"/>
      <path d="M265.386,595.471 L290.04,595.471 C298.827,595.471 305.95,602.594 305.95,611.381 L305.95,699.529 C305.95,743.465 341.566,779.081 385.502,779.081 L435.348,779.081 C438.863,779.081 441.712,776.232 441.712,772.717 L441.712,683.457 C441.712,679.942 438.862,677.092 435.348,677.092 L400.289,677.092 C391.502,677.092 384.379,669.969 384.379,661.182 L384.379,419.818 C384.379,411.031 391.502,403.907 400.289,403.907 L435.348,403.907 C438.863,403.907 441.712,401.058 441.712,397.543 L441.712,308.283 C441.712,304.768 438.862,301.919 435.348,301.919 L385.502,301.919 C341.566,301.919 305.95,337.535 305.95,381.47 L305.95,473.595 C305.95,482.382 298.827,489.506 290.04,489.506 L265.386,489.506 C261.871,489.506 259.022,492.355 259.022,495.87 L259.022,589.107 C259.022,592.622 261.871,595.471 265.386,595.471 z" fill-opacity="0" stroke="#1E1E1E" stroke-width="20"/>
      <g>
        <path d="M1655.614,595.471 L1630.96,595.471 C1622.173,595.471 1615.05,602.594 1615.05,611.381 L1615.05,699.529 C1615.05,743.465 1579.434,779.081 1535.498,779.081 L1485.652,779.081 C1482.137,779.081 1479.288,776.232 1479.288,772.717 L1479.288,683.457 C1479.288,679.942 1482.138,677.092 1485.652,677.092 L1520.711,677.092 C1529.498,677.092 1536.621,669.969 1536.621,661.182 L1536.621,419.818 C1536.621,411.031 1529.498,403.907 1520.711,403.907 L1485.652,403.907 C1482.137,403.907 1479.288,401.058 1479.288,397.543 L1479.288,308.283 C1479.288,304.768 1482.138,301.919 1485.652,301.919 L1535.498,301.919 C1579.434,301.919 1615.05,337.535 1615.05,381.47 L1615.05,473.595 C1615.05,482.382 1622.173,489.506 1630.96,489.506 L1655.614,489.506 C1659.129,489.506 1661.978,492.355 1661.978,495.87 L1661.978,589.107 C1661.978,592.622 1659.129,595.471 1655.614,595.471" fill="currentColor"/>
        <path d="M1655.614,595.471 L1630.96,595.471 C1622.173,595.471 1615.05,602.594 1615.05,611.381 L1615.05,699.529 C1615.05,743.465 1579.434,779.081 1535.498,779.081 L1485.652,779.081 C1482.137,779.081 1479.288,776.232 1479.288,772.717 L1479.288,683.457 C1479.288,679.942 1482.138,677.092 1485.652,677.092 L1520.711,677.092 C1529.498,677.092 1536.621,669.969 1536.621,661.182 L1536.621,419.818 C1536.621,411.031 1529.498,403.907 1520.711,403.907 L1485.652,403.907 C1482.137,403.907 1479.288,401.058 1479.288,397.543 L1479.288,308.283 C1479.288,304.768 1482.138,301.919 1485.652,301.919 L1535.498,301.919 C1579.434,301.919 1615.05,337.535 1615.05,381.47 L1615.05,473.595 C1615.05,482.382 1622.173,489.506 1630.96,489.506 L1655.614,489.506 C1659.129,489.506 1661.978,492.355 1661.978,495.87 L1661.978,589.107 C1661.978,592.622 1659.129,595.471 1655.614,595.471" fill-opacity="0" stroke="#000000" stroke-width="10"/>
      </g>
      <path d="M1655.614,595.471 L1630.96,595.471 C1622.173,595.471 1615.05,602.594 1615.05,611.381 L1615.05,699.529 C1615.05,743.465 1579.434,779.081 1535.498,779.081 L1485.652,779.081 C1482.137,779.081 1479.288,776.232 1479.288,772.717 L1479.288,683.457 C1479.288,679.942 1482.138,677.092 1485.652,677.092 L1520.711,677.092 C1529.498,677.092 1536.621,669.969 1536.621,661.182 L1536.621,419.818 C1536.621,411.031 1529.498,403.907 1520.711,403.907 L1485.652,403.907 C1482.137,403.907 1479.288,401.058 1479.288,397.543 L1479.288,308.283 C1479.288,304.768 1482.138,301.919 1485.652,301.919 L1535.498,301.919 C1579.434,301.919 1615.05,337.535 1615.05,381.47 L1615.05,473.595 C1615.05,482.382 1622.173,489.506 1630.96,489.506 L1655.614,489.506 C1659.129,489.506 1661.978,492.355 1661.978,495.87 L1661.978,589.107 C1661.978,592.622 1659.129,595.471 1655.614,595.471 z" fill-opacity="0" stroke="#1E1E1E" stroke-width="20"/>
    </g>
    <g id="DevFest">
      <path d="M1137.075,448.129 L1139.489,448.161 C1150.222,448.378 1160.671,450.945 1169.914,456.458 C1178.796,462.014 1185.537,469.427 1190.14,478.708 C1194.739,487.988 1197.041,498.262 1197.041,509.524 C1197.041,512.064 1196.959,514.246 1196.803,516.068 C1196.644,517.893 1196.483,519.202 1196.327,519.995 L1105.313,519.995 C1106.011,524.577 1107.313,528.666 1109.233,532.25 C1112.245,537.883 1116.331,542.166 1121.488,545.099 C1126.642,548.037 1132.393,549.502 1138.74,549.502 C1146.195,549.502 1152.461,547.877 1157.539,544.623 C1162.614,541.374 1166.582,537.288 1169.438,532.368 L1194.662,544.742 C1188.951,554.737 1181.492,562.631 1172.293,568.419 C1163.091,574.209 1151.746,577.106 1138.264,577.106 C1126.047,577.106 1115.141,574.328 1105.545,568.777 C1095.944,563.226 1088.411,555.611 1082.938,545.932 C1077.465,536.258 1074.728,525.23 1074.728,512.855 C1074.728,501.277 1077.424,490.569 1082.819,480.73 C1088.211,470.896 1095.587,463.002 1104.95,457.054 C1114.308,451.104 1125.016,448.129 1137.075,448.129 z M1137.313,473.591 C1131.282,473.592 1125.772,475.179 1120.774,478.351 C1115.777,481.526 1111.85,485.928 1108.995,491.558 C1107.997,493.527 1107.184,495.634 1106.535,497.864 L1167.058,497.863 C1166.898,495.168 1166.106,492.391 1164.679,489.535 C1163.25,486.679 1161.265,484.062 1158.729,481.682 C1156.19,479.303 1153.137,477.362 1149.568,475.853 C1145.998,474.346 1141.912,473.592 1137.313,473.592 L1137.313,473.591 z M747.152,473.591 L747.152,473.592 C751.751,473.592 755.837,474.346 759.407,475.853 C762.976,477.362 766.029,479.303 768.568,481.682 C771.104,484.062 773.089,486.679 774.518,489.535 C775.945,492.391 776.737,495.168 776.897,497.863 L716.374,497.864 C717.023,495.634 717.836,493.527 718.834,491.558 C721.689,485.928 725.616,481.526 730.613,478.351 C735.611,475.179 741.121,473.592 747.152,473.591 z M746.914,448.129 C734.855,448.129 724.147,451.104 714.789,457.054 C705.426,463.002 698.05,470.896 692.658,480.73 C687.263,490.569 684.567,501.277 684.567,512.855 C684.567,525.23 687.304,536.258 692.777,545.932 C698.25,555.611 705.783,563.226 715.384,568.777 C724.98,574.328 735.886,577.106 748.103,577.106 C761.585,577.106 772.929,574.209 782.132,568.419 C791.331,562.631 798.79,554.737 804.501,544.742 L779.277,532.368 C776.421,537.288 772.453,541.374 767.378,544.623 C762.3,547.877 756.034,549.502 748.579,549.502 C742.232,549.502 736.48,548.037 731.327,545.099 C726.17,542.166 722.084,537.883 719.072,532.25 C717.152,528.666 715.85,524.577 715.153,519.995 L806.166,519.995 C806.322,519.202 806.483,517.893 806.642,516.068 C806.798,514.246 806.88,512.064 806.88,509.524 C806.88,498.262 804.578,487.988 799.979,478.708 C795.376,469.427 788.635,462.014 779.753,456.458 C770.51,450.945 760.061,448.378 749.328,448.161 L746.914,448.129 z M1260.266,448.129 L1260.267,448.129 C1251.541,448.129 1243.57,449.639 1236.353,452.651 C1229.132,455.666 1223.421,459.871 1219.219,465.262 C1215.014,470.657 1212.913,477.004 1212.913,484.3 C1212.913,490.806 1214.537,496.555 1217.791,501.552 C1221.041,506.549 1225.287,510.676 1230.522,513.926 C1235.757,517.179 1241.309,519.44 1247.18,520.707 L1261.458,523.801 C1264.789,524.437 1268.039,525.269 1271.214,526.3 C1274.386,527.334 1277.044,528.761 1279.186,530.583 C1281.327,532.409 1282.398,534.907 1282.398,538.079 C1282.398,542.523 1280.335,545.575 1276.211,547.24 C1272.084,548.907 1267.484,549.739 1262.409,549.739 C1256.223,549.739 1250.827,548.274 1246.227,545.337 C1241.625,542.403 1237.977,538.079 1235.281,532.368 L1207.44,544.504 C1209.66,550.375 1213.069,555.77 1217.672,560.686 C1222.272,565.604 1228.262,569.572 1235.639,572.583 C1243.015,575.595 1251.939,577.105 1262.409,577.105 C1271.928,577.105 1280.572,575.476 1288.347,572.227 C1296.119,568.977 1302.305,564.374 1306.908,558.425 C1311.508,552.476 1313.809,545.538 1313.809,537.603 C1313.809,528.721 1310.753,521.106 1304.647,514.759 C1298.538,508.415 1289.455,503.813 1277.401,500.957 L1259.553,496.673 C1255.11,495.565 1251.303,493.9 1248.132,491.676 C1244.956,489.456 1243.372,486.839 1243.372,483.823 C1243.372,480.968 1244.956,478.51 1248.132,476.447 C1251.303,474.387 1255.587,473.353 1260.982,473.353 C1265.581,473.353 1269.905,474.305 1273.951,476.209 C1277.996,478.112 1281.286,481.444 1283.826,486.203 L1310.478,474.543 C1307.622,468.516 1303.815,463.56 1299.056,459.671 C1294.297,455.785 1288.663,452.889 1282.16,450.985 C1275.653,449.081 1268.358,448.129 1260.266,448.129 z M1375.414,417.67 L1344.242,417.67 L1344.242,451.937 L1323.063,451.937 L1323.063,478.588 L1344.242,478.588 L1344.242,534.509 C1344.243,547.203 1347.812,557.157 1354.95,564.374 C1362.089,571.595 1371.925,575.201 1384.457,575.201 C1388.266,575.201 1391.953,574.844 1395.523,574.13 C1399.093,573.416 1402.62,572.428 1406.112,571.156 L1406.112,540.696 C1402.781,542.76 1400.004,544.147 1397.783,544.861 C1395.561,545.575 1393.181,545.932 1390.644,545.932 C1385.25,545.932 1381.365,544.545 1378.984,541.767 C1376.605,538.994 1375.415,534.669 1375.414,528.798 L1375.414,478.588 L1405.16,478.588 L1405.16,451.937 L1375.414,451.937 L1375.414,417.67 z M1065.329,402.917 L957.294,402.917 L957.294,573.298 L989.419,573.298 L989.419,505.24 L1057.714,505.24 L1057.714,474.781 L989.419,474.781 L989.419,433.376 L1065.329,433.376 L1065.329,402.917 z M580.103,433.375 L580.104,433.375 C592.634,433.376 603.104,435.636 611.515,440.158 C619.922,444.679 626.227,451.026 630.433,459.194 C634.635,467.368 636.739,477.005 636.739,488.107 C636.739,499.053 634.635,508.654 630.433,516.901 C626.227,525.151 619.922,531.536 611.515,536.057 C603.104,540.578 592.634,542.839 580.103,542.838 L556.069,542.838 L556.069,433.375 L580.103,433.375 z M581.531,402.916 L523.944,402.916 L523.944,573.297 L581.532,573.297 C599.617,573.298 615.204,569.728 628.292,562.589 C641.379,555.451 651.452,545.456 658.513,532.605 C665.57,519.757 669.102,504.924 669.102,488.107 C669.102,471.294 665.57,456.499 658.513,443.727 C651.452,430.96 641.379,420.965 628.292,413.744 C615.204,406.527 599.617,402.917 581.531,402.916 z M843.194,451.936 L807.737,451.936 L859.137,573.297 L890.072,573.297 L941.948,451.936 L906.967,451.936 L875.794,530.94 L873.89,530.94 L843.194,451.936 z" fill="currentColor"/>
    </g>
    <g id="Location">
      <path d="M1348.818,731 L571.182,731 C533.521,731 502.991,700.47 502.991,662.809 L502.991,662.808 C502.991,625.147 533.521,594.617 571.182,594.617 L1348.818,594.617 C1386.479,594.617 1417.01,625.147 1417.01,662.808 L1417.01,662.809 C1417.01,700.47 1386.479,731 1348.818,731" fill="currentColor" display="none"/>
      <path d="M1349.318,731.5 L571.682,731.5 C534.021,731.5 503.491,700.97 503.491,663.309 L503.491,663.308 C503.491,625.647 534.021,595.117 571.682,595.117 L1349.318,595.117 C1386.979,595.117 1417.51,625.647 1417.51,663.308 L1417.51,663.309 C1417.51,700.97 1386.979,731.5 1349.318,731.5 z" fill-opacity="0" stroke="#1E1E1E" stroke-width="5" display="none"/>
      <path d="M740.599,622.477 L805.975,622.477 L805.975,640.909 L760.039,640.909 L760.039,665.965 L801.367,665.965 L801.367,684.397 L760.039,684.397 L760.039,725.581 L740.599,725.581 z" fill="currentColor"/>
      <path d="M819.759,622.477 L838.623,622.477 L838.623,725.581 L819.759,725.581 z" fill="currentColor"/>
      <path d="M890.856,727.885 Q879.48,727.885 870.552,722.773 Q861.624,717.661 856.656,708.805 Q851.688,699.949 851.688,688.861 Q851.688,677.917 856.656,668.989 Q861.624,660.061 870.552,654.949 Q879.48,649.837 890.856,649.837 Q902.088,649.837 911.016,654.949 Q919.944,660.061 924.912,668.989 Q929.88,677.917 929.88,688.861 Q929.88,699.949 924.912,708.805 Q919.944,717.661 911.016,722.773 Q902.088,727.885 890.856,727.885 z M890.856,710.461 Q896.328,710.461 900.936,707.869 Q905.544,705.277 908.28,700.381 Q911.016,695.485 911.016,688.861 Q911.016,682.381 908.28,677.485 Q905.544,672.589 900.936,669.997 Q896.328,667.405 890.856,667.405 Q885.384,667.405 880.776,669.997 Q876.168,672.589 873.36,677.485 Q870.552,682.381 870.552,688.861 Q870.552,695.341 873.36,700.309 Q876.168,705.277 880.776,707.869 Q885.384,710.461 890.856,710.461 z" fill="currentColor"/>
      <path d="M942.08,652.141 L959.792,652.141 L959.792,661.933 L960.944,661.933 Q963.68,656.749 969.44,653.365 Q975.2,649.981 982.112,649.981 Q987.152,649.981 991.328,651.565 L991.328,670.429 Q987.44,668.989 984.776,668.341 Q982.112,667.693 979.088,667.693 Q970.736,667.693 965.84,673.741 Q960.944,679.789 960.944,689.005 L960.944,725.581 L942.08,725.581 z" fill="currentColor"/>
      <path d="M1013.465,644.077 Q1008.425,644.077 1004.825,640.477 Q1001.225,636.877 1001.225,631.837 Q1001.225,626.797 1004.825,623.269 Q1008.425,619.741 1013.465,619.741 Q1018.505,619.741 1022.033,623.269 Q1025.561,626.797 1025.561,631.837 Q1025.561,636.877 1022.033,640.477 Q1018.505,644.077 1013.465,644.077 z M1003.961,652.141 L1022.825,652.141 L1022.825,725.581 L1003.961,725.581 z" fill="currentColor"/>
      <path d="M1072.609,727.885 Q1062.673,727.885 1054.537,722.917 Q1046.401,717.949 1041.721,709.093 Q1037.041,700.237 1037.041,688.861 Q1037.041,677.629 1041.721,668.701 Q1046.401,659.773 1054.537,654.805 Q1062.673,649.837 1072.609,649.837 Q1080.097,649.837 1085.857,653.077 Q1091.617,656.317 1094.641,661.069 L1095.793,661.069 L1094.641,650.701 L1094.641,622.477 L1113.361,622.477 L1113.361,725.581 L1095.793,725.581 L1095.793,716.797 L1094.641,716.797 Q1091.761,721.549 1085.929,724.717 Q1080.097,727.885 1072.609,727.885 z M1075.777,710.461 Q1081.105,710.461 1085.713,707.725 Q1090.321,704.989 1093.057,700.093 Q1095.793,695.197 1095.793,688.861 Q1095.793,682.525 1093.057,677.629 Q1090.321,672.733 1085.713,670.069 Q1081.105,667.405 1075.777,667.405 Q1070.593,667.405 1065.985,670.069 Q1061.377,672.733 1058.641,677.629 Q1055.905,682.525 1055.905,688.861 Q1055.905,695.197 1058.641,700.093 Q1061.377,704.989 1065.985,707.725 Q1070.593,710.461 1075.777,710.461 z" fill="currentColor"/>
      <path d="M1152.922,727.885 Q1141.258,727.885 1133.77,721.045 Q1126.282,714.205 1126.282,703.117 Q1126.282,695.773 1130.17,690.157 Q1134.058,684.541 1140.826,681.517 Q1147.594,678.493 1155.802,678.493 Q1167.178,678.493 1175.242,681.805 L1175.242,678.637 Q1175.242,672.589 1170.706,668.845 Q1166.17,665.101 1158.538,665.101 Q1153.354,665.101 1148.53,667.477 Q1143.706,669.853 1140.538,673.741 L1128.442,664.237 Q1133.77,657.325 1141.834,653.581 Q1149.898,649.837 1159.402,649.837 Q1176.25,649.837 1185.034,657.613 Q1193.818,665.389 1193.818,680.365 L1193.818,725.581 L1175.242,725.581 L1175.242,718.093 L1174.09,718.093 Q1170.778,722.413 1165.378,725.149 Q1159.978,727.885 1152.922,727.885 z M1157.386,713.197 Q1165.594,713.197 1170.418,707.941 Q1175.242,702.685 1175.242,695.629 Q1167.898,692.173 1159.834,692.173 Q1145.146,692.173 1145.146,703.117 Q1145.146,707.581 1148.314,710.389 Q1151.482,713.197 1157.386,713.197 z" fill="currentColor"/>
    </g>
    <g id="DevFest" display="none">
      <path d="M626.32,567.795 C622.114,576.045 615.809,582.43 607.402,586.951 C598.991,591.472 588.521,593.733 575.991,593.733 L551.957,593.733 L551.957,484.27 L575.991,484.27 C588.521,484.27 598.991,486.53 607.402,491.052 C615.809,495.573 622.114,501.92 626.32,510.089 C630.522,518.262 632.626,527.899 632.626,539.002 C632.626,549.947 630.522,559.548 626.32,567.795 M624.179,464.639 C611.091,457.421 595.504,453.811 577.419,453.811 L519.832,453.811 L519.832,624.192 L577.419,624.192 C595.504,624.192 611.091,620.622 624.179,613.484 C637.266,606.345 647.339,596.35 654.4,583.5 C661.457,570.651 664.989,555.818 664.989,539.002 C664.989,522.188 661.457,507.393 654.4,494.621 C647.339,481.854 637.266,471.859 624.179,464.639" fill="currentColor"/>
      <path d="M712.261,548.758 C712.91,546.528 713.723,544.421 714.721,542.452 C717.576,536.822 721.503,532.42 726.5,529.245 C731.498,526.073 737.008,524.486 743.039,524.486 C747.638,524.486 751.724,525.24 755.294,526.747 C758.863,528.256 761.916,530.197 764.455,532.576 C766.991,534.956 768.976,537.573 770.405,540.429 C771.832,543.285 772.624,546.062 772.784,548.758 z M775.64,507.352 C766.753,501.801 755.807,499.023 742.801,499.023 C730.742,499.023 720.034,501.998 710.676,507.948 C701.313,513.896 693.937,521.79 688.545,531.624 C683.15,541.463 680.454,552.171 680.454,563.749 C680.454,576.124 683.191,587.152 688.664,596.826 C694.137,606.505 701.67,614.12 711.271,619.671 C720.867,625.222 731.773,628 743.99,628 C757.472,628 768.816,625.103 778.019,619.313 C787.218,613.525 794.677,605.631 800.388,595.637 L775.164,583.262 C772.308,588.182 768.34,592.268 763.265,595.517 C758.187,598.771 751.921,600.396 744.466,600.396 C738.119,600.396 732.367,598.931 727.214,595.993 C722.057,593.06 717.971,588.777 714.959,583.144 C713.039,579.56 711.737,575.471 711.04,570.889 L802.053,570.889 C802.209,570.096 802.37,568.787 802.529,566.962 C802.685,565.14 802.767,562.958 802.767,560.418 C802.767,549.156 800.465,538.882 795.866,529.602 C791.263,520.321 784.522,512.908 775.64,507.352" fill="currentColor"/>
      <path d="M871.681,581.835 L869.777,581.835 L839.081,502.831 L803.624,502.831 L855.024,624.192 L885.959,624.192 L937.835,502.831 L902.854,502.831 z" fill="currentColor"/>
      <path d="M953.182,624.192 L985.307,624.192 L985.307,556.134 L1053.602,556.134 L1053.602,525.675 L985.307,525.675 L985.307,484.27 L1061.217,484.27 L1061.217,453.811 L953.182,453.811 z" fill="currentColor"/>
      <path d="M1102.422,548.758 C1103.072,546.528 1103.885,544.421 1104.882,542.452 C1107.738,536.822 1111.665,532.42 1116.661,529.245 C1121.66,526.073 1127.17,524.486 1133.201,524.486 C1137.8,524.486 1141.885,525.24 1145.455,526.747 C1149.025,528.256 1152.078,530.197 1154.616,532.576 C1157.152,534.956 1159.137,537.573 1160.567,540.429 C1161.994,543.285 1162.786,546.062 1162.946,548.758 z M1165.802,507.352 C1156.915,501.801 1145.969,499.023 1132.963,499.023 C1120.903,499.023 1110.196,501.998 1100.838,507.948 C1091.474,513.896 1084.099,521.79 1078.707,531.624 C1073.312,541.463 1070.615,552.171 1070.615,563.749 C1070.615,576.124 1073.353,587.152 1078.826,596.826 C1084.298,606.505 1091.832,614.12 1101.432,619.671 C1111.028,625.222 1121.934,628 1134.151,628 C1147.634,628 1158.979,625.103 1168.181,619.313 C1177.38,613.525 1184.839,605.631 1190.55,595.637 L1165.326,583.262 C1162.469,588.182 1158.501,592.268 1153.427,595.517 C1148.349,598.771 1142.083,600.396 1134.627,600.396 C1128.281,600.396 1122.53,598.931 1117.375,595.993 C1112.219,593.06 1108.132,588.777 1105.12,583.144 C1103.201,579.56 1101.899,575.471 1101.202,570.889 L1192.214,570.889 C1192.37,570.096 1192.531,568.787 1192.691,566.962 C1192.847,565.14 1192.928,562.958 1192.928,560.418 C1192.928,549.156 1190.626,538.882 1186.027,529.602 C1181.425,520.321 1174.683,512.908 1165.802,507.352" fill="currentColor"/>
      <path d="M1273.288,551.852 L1255.44,547.568 C1250.997,546.459 1247.19,544.794 1244.019,542.57 C1240.843,540.351 1239.259,537.734 1239.259,534.718 C1239.259,531.862 1240.843,529.404 1244.019,527.341 C1247.19,525.281 1251.474,524.247 1256.869,524.247 C1261.468,524.247 1265.792,525.2 1269.838,527.104 C1273.883,529.006 1277.173,532.339 1279.713,537.097 L1306.365,525.438 C1303.509,519.411 1299.702,514.455 1294.943,510.565 C1290.184,506.68 1284.55,503.784 1278.047,501.879 C1271.54,499.975 1264.245,499.023 1256.154,499.023 C1247.428,499.023 1239.457,500.534 1232.24,503.546 C1225.019,506.56 1219.308,510.766 1215.106,516.156 C1210.901,521.552 1208.8,527.898 1208.8,535.195 C1208.8,541.701 1210.424,547.45 1213.678,552.446 C1216.928,557.443 1221.174,561.57 1226.409,564.82 C1231.644,568.073 1237.196,570.334 1243.067,571.602 L1257.345,574.695 C1260.676,575.331 1263.926,576.164 1267.101,577.195 C1270.273,578.229 1272.931,579.656 1275.073,581.477 C1277.214,583.304 1278.285,585.802 1278.285,588.974 C1278.285,593.417 1276.222,596.469 1272.098,598.135 C1267.971,599.802 1263.371,600.633 1258.296,600.633 C1252.11,600.633 1246.714,599.169 1242.114,596.232 C1237.512,593.297 1233.864,588.974 1231.168,583.263 L1203.327,595.398 C1205.547,601.269 1208.956,606.664 1213.559,611.581 C1218.159,616.498 1224.149,620.466 1231.526,623.477 C1238.902,626.49 1247.826,628 1258.296,628 C1267.815,628 1276.459,626.37 1284.234,623.122 C1292.006,619.872 1298.192,615.268 1302.795,609.32 C1307.395,603.37 1309.696,596.432 1309.696,588.497 C1309.696,579.615 1306.64,572 1300.534,565.654 C1294.425,559.31 1285.342,554.708 1273.288,551.852" fill="currentColor"/>
      <path d="M1393.671,595.755 C1391.448,596.469 1389.068,596.826 1386.532,596.826 C1381.138,596.826 1377.252,595.44 1374.872,592.661 C1372.493,589.888 1371.302,585.563 1371.302,579.693 L1371.302,529.482 L1401.048,529.482 L1401.048,502.831 L1371.302,502.831 L1371.302,468.564 L1340.13,468.564 L1340.13,502.831 L1318.951,502.831 L1318.951,529.482 L1340.13,529.482 L1340.13,585.404 C1340.13,598.097 1343.699,608.052 1350.838,615.268 C1357.976,622.49 1367.812,626.095 1380.345,626.095 C1384.153,626.095 1387.841,625.738 1391.411,625.024 C1394.98,624.31 1398.508,623.323 1402,622.05 L1402,591.591 C1398.668,593.654 1395.891,595.042 1393.671,595.755" fill="currentColor"/>
    </g>
  </g>
</svg>
