<?xml version="1.0" encoding="UTF-8"?>
<!DOCTYPE svg PUBLIC "-//W3C//DTD SVG 1.1//EN" "http://www.w3.org/Graphics/SVG/1.1/DTD/svg11.dtd">
<svg version="1.1" xmlns="http://www.w3.org/2000/svg" xmlns:xlink="http://www.w3.org/1999/xlink" x="0" y="0" width="1920" height="1080" viewBox="0, 0, 1920, 1080">
  <g id="Layer_1">
    <g>
      <path d="M1398.405,748.712 Q1385.221,748.712 1374.149,742.504 Q1363.077,736.296 1356.549,725.352 Q1350.021,714.408 1350.021,700.84 Q1350.021,687.272 1356.549,676.328 Q1363.077,665.384 1374.149,659.176 Q1385.221,652.968 1398.405,652.968 Q1409.157,652.968 1418.053,656.744 Q1426.949,660.52 1433.349,667.432 L1421.445,679.08 Q1416.837,674.216 1411.269,671.784 Q1405.701,669.352 1398.277,669.352 Q1389.829,669.352 1382.789,673.256 Q1375.749,677.16 1371.589,684.392 Q1367.429,691.624 1367.429,700.84 Q1367.429,710.056 1371.653,717.288 Q1375.877,724.52 1382.981,728.424 Q1390.085,732.328 1398.533,732.328 Q1411.333,732.328 1419.525,724.776 Q1422.085,722.472 1424.005,718.888 Q1425.925,715.304 1426.821,711.08 L1398.021,711.08 L1398.021,696.36 L1442.949,696.36 Q1443.845,699.944 1443.845,704.424 Q1443.845,713.512 1441.093,721.32 Q1438.341,729.128 1432.709,735.016 Q1426.565,741.672 1417.861,745.192 Q1409.157,748.712 1398.405,748.712 z" fill="#1E1E1E"/>
      <path d="M1454.806,681.384 L1470.55,681.384 L1470.55,690.088 L1471.574,690.088 Q1474.006,685.48 1479.126,682.472 Q1484.246,679.464 1490.39,679.464 Q1494.87,679.464 1498.582,680.872 L1498.582,697.64 Q1495.126,696.36 1492.758,695.784 Q1490.39,695.208 1487.702,695.208 Q1480.278,695.208 1475.926,700.584 Q1471.574,705.96 1471.574,714.152 L1471.574,746.664 L1454.806,746.664 z" fill="#1E1E1E"/>
      <path d="M1536.724,748.712 Q1526.612,748.712 1518.676,744.168 Q1510.74,739.624 1506.324,731.752 Q1501.908,723.88 1501.908,714.024 Q1501.908,704.296 1506.324,696.36 Q1510.74,688.424 1518.676,683.88 Q1526.612,679.336 1536.724,679.336 Q1546.708,679.336 1554.644,683.88 Q1562.58,688.424 1566.996,696.36 Q1571.412,704.296 1571.412,714.024 Q1571.412,723.88 1566.996,731.752 Q1562.58,739.624 1554.644,744.168 Q1546.708,748.712 1536.724,748.712 z M1536.724,733.224 Q1541.588,733.224 1545.684,730.92 Q1549.78,728.616 1552.212,724.264 Q1554.644,719.912 1554.644,714.024 Q1554.644,708.264 1552.212,703.912 Q1549.78,699.56 1545.684,697.256 Q1541.588,694.952 1536.724,694.952 Q1531.86,694.952 1527.764,697.256 Q1523.668,699.56 1521.172,703.912 Q1518.676,708.264 1518.676,714.024 Q1518.676,719.784 1521.172,724.2 Q1523.668,728.616 1527.764,730.92 Q1531.86,733.224 1536.724,733.224 z" fill="#1E1E1E"/>
      <path d="M1606.047,748.712 Q1594.271,748.712 1588.127,741.416 Q1581.984,734.12 1581.984,721.064 L1581.984,681.384 L1598.751,681.384 L1598.751,719.016 Q1598.751,725.672 1601.951,729.448 Q1605.151,733.224 1610.399,733.224 Q1617.568,733.224 1621.792,727.976 Q1626.016,722.728 1626.016,714.664 L1626.016,681.384 L1642.783,681.384 L1642.783,746.664 L1627.039,746.664 L1627.039,738.472 L1626.016,738.472 Q1623.071,743.208 1617.76,745.96 Q1612.448,748.712 1606.047,748.712 z" fill="#1E1E1E"/>
      <path d="M1657.624,681.384 L1673.368,681.384 L1673.368,689.32 L1674.392,689.32 Q1677.08,685.096 1682.2,682.216 Q1687.32,679.336 1693.976,679.336 Q1702.808,679.336 1710.04,683.752 Q1717.272,688.168 1721.368,696.104 Q1725.464,704.04 1725.464,714.024 Q1725.464,724.136 1721.368,732.008 Q1717.272,739.88 1710.04,744.296 Q1702.808,748.712 1693.976,748.712 Q1687.32,748.712 1682.136,745.896 Q1676.952,743.08 1674.392,738.856 L1673.368,738.856 L1674.392,748.072 L1674.392,774.312 L1657.624,774.312 z M1691.032,733.224 Q1695.768,733.224 1699.864,730.792 Q1703.96,728.36 1706.392,724.008 Q1708.824,719.656 1708.824,714.024 Q1708.824,708.392 1706.392,704.04 Q1703.96,699.688 1699.864,697.32 Q1695.768,694.952 1691.032,694.952 Q1686.424,694.952 1682.328,697.32 Q1678.232,699.688 1675.8,704.04 Q1673.368,708.392 1673.368,714.024 Q1673.368,719.656 1675.8,724.008 Q1678.232,728.36 1682.328,730.792 Q1686.424,733.224 1691.032,733.224 z" fill="#1E1E1E"/>
      <path d="M1761.875,748.712 Q1749.971,748.712 1742.611,743.848 Q1735.251,738.984 1732.307,731.176 L1747.283,724.648 Q1749.331,729.256 1753.107,731.624 Q1756.883,733.992 1761.875,733.992 Q1766.483,733.992 1769.555,732.52 Q1772.627,731.048 1772.627,727.72 Q1772.627,724.52 1769.811,722.92 Q1766.995,721.32 1761.363,720.04 L1753.683,718.376 Q1745.747,716.456 1740.499,711.4 Q1735.251,706.344 1735.251,698.792 Q1735.251,693.16 1738.643,688.68 Q1742.035,684.2 1747.859,681.768 Q1753.683,679.336 1760.723,679.336 Q1780.947,679.336 1787.731,693.544 L1773.395,699.816 Q1769.555,692.904 1761.107,692.904 Q1756.755,692.904 1754.195,694.504 Q1751.635,696.104 1751.635,698.536 Q1751.635,703.144 1760.339,705.448 L1769.939,707.752 Q1779.667,710.184 1784.595,715.176 Q1789.523,720.168 1789.523,727.464 Q1789.523,733.736 1785.875,738.536 Q1782.227,743.336 1775.891,746.024 Q1769.555,748.712 1761.875,748.712 z" fill="#1E1E1E"/>
      <path d="M1087.074,484.479 L1118.05,484.479 Q1132.386,484.479 1143.01,490.239 Q1153.634,495.999 1159.394,506.367 Q1165.154,516.735 1165.154,530.303 Q1165.154,543.871 1159.394,554.239 Q1153.634,564.607 1143.01,570.367 Q1132.386,576.127 1118.05,576.127 L1087.074,576.127 z M1117.282,559.743 Q1132.13,559.743 1139.938,551.871 Q1147.746,543.999 1147.746,530.303 Q1147.746,516.607 1139.938,508.735 Q1132.13,500.863 1117.282,500.863 L1104.354,500.863 L1104.354,559.743 z" fill="#1E1E1E"/>
      <path d="M1207.063,578.175 Q1197.335,578.175 1189.527,573.695 Q1181.719,569.215 1177.303,561.343 Q1172.887,553.471 1172.887,543.615 Q1172.887,534.271 1177.239,526.271 Q1181.591,518.271 1189.271,513.535 Q1196.951,508.799 1206.423,508.799 Q1216.535,508.799 1223.831,513.151 Q1231.127,517.503 1234.903,525.055 Q1238.679,532.607 1238.679,541.823 Q1238.679,544.767 1238.295,547.455 L1189.271,547.455 Q1190.551,555.263 1195.479,559.295 Q1200.407,563.327 1207.319,563.327 Q1213.079,563.327 1217.239,560.831 Q1221.399,558.335 1223.831,554.111 L1237.399,560.767 Q1227.415,578.175 1207.063,578.175 z M1222.551,535.551 Q1222.295,532.479 1220.311,529.471 Q1218.327,526.463 1214.807,524.479 Q1211.287,522.495 1206.551,522.495 Q1200.535,522.495 1196.247,526.015 Q1191.959,529.535 1190.039,535.551 z" fill="#1E1E1E"/>
      <path d="M1240.878,510.847 L1259.95,510.847 L1276.462,553.343 L1277.486,553.343 L1294.254,510.847 L1313.07,510.847 L1285.166,576.127 L1268.526,576.127 z" fill="#1E1E1E"/>
      <path d="M1348.501,578.175 Q1338.773,578.175 1330.965,573.695 Q1323.157,569.215 1318.741,561.343 Q1314.325,553.471 1314.325,543.615 Q1314.325,534.271 1318.677,526.271 Q1323.029,518.271 1330.709,513.535 Q1338.389,508.799 1347.861,508.799 Q1357.973,508.799 1365.269,513.151 Q1372.565,517.503 1376.341,525.055 Q1380.117,532.607 1380.117,541.823 Q1380.117,544.767 1379.733,547.455 L1330.709,547.455 Q1331.989,555.263 1336.917,559.295 Q1341.845,563.327 1348.757,563.327 Q1354.517,563.327 1358.677,560.831 Q1362.837,558.335 1365.269,554.111 L1378.837,560.767 Q1368.853,578.175 1348.501,578.175 z M1363.989,535.551 Q1363.733,532.479 1361.749,529.471 Q1359.765,526.463 1356.245,524.479 Q1352.725,522.495 1347.989,522.495 Q1341.973,522.495 1337.685,526.015 Q1333.397,529.535 1331.477,535.551 z" fill="#1E1E1E"/>
      <path d="M1392.138,484.479 L1408.906,484.479 L1408.906,576.127 L1392.138,576.127 z" fill="#1E1E1E"/>
      <path d="M1455.102,578.175 Q1444.99,578.175 1437.054,573.631 Q1429.118,569.087 1424.702,561.215 Q1420.286,553.343 1420.286,543.487 Q1420.286,533.759 1424.702,525.823 Q1429.118,517.887 1437.054,513.343 Q1444.99,508.799 1455.102,508.799 Q1465.086,508.799 1473.022,513.343 Q1480.958,517.887 1485.374,525.823 Q1489.79,533.759 1489.79,543.487 Q1489.79,553.343 1485.374,561.215 Q1480.958,569.087 1473.022,573.631 Q1465.086,578.175 1455.102,578.175 z M1455.102,562.687 Q1459.966,562.687 1464.062,560.383 Q1468.158,558.079 1470.59,553.727 Q1473.022,549.375 1473.022,543.487 Q1473.022,537.727 1470.59,533.375 Q1468.158,529.023 1464.062,526.719 Q1459.966,524.415 1455.102,524.415 Q1450.238,524.415 1446.142,526.719 Q1442.046,529.023 1439.55,533.375 Q1437.054,537.727 1437.054,543.487 Q1437.054,549.247 1439.55,553.663 Q1442.046,558.079 1446.142,560.383 Q1450.238,562.687 1455.102,562.687 z" fill="#1E1E1E"/>
      <path d="M1500.789,510.847 L1516.533,510.847 L1516.533,518.783 L1517.557,518.783 Q1520.245,514.559 1525.365,511.679 Q1530.485,508.799 1537.141,508.799 Q1545.973,508.799 1553.205,513.215 Q1560.437,517.631 1564.533,525.567 Q1568.629,533.503 1568.629,543.487 Q1568.629,553.599 1564.533,561.471 Q1560.437,569.343 1553.205,573.759 Q1545.973,578.175 1537.141,578.175 Q1530.485,578.175 1525.301,575.359 Q1520.117,572.543 1517.557,568.319 L1516.533,568.319 L1517.557,577.535 L1517.557,603.775 L1500.789,603.775 z M1534.197,562.687 Q1538.933,562.687 1543.029,560.255 Q1547.125,557.823 1549.557,553.471 Q1551.989,549.119 1551.989,543.487 Q1551.989,537.855 1549.557,533.503 Q1547.125,529.151 1543.029,526.783 Q1538.933,524.415 1534.197,524.415 Q1529.589,524.415 1525.493,526.783 Q1521.397,529.151 1518.965,533.503 Q1516.533,537.855 1516.533,543.487 Q1516.533,549.119 1518.965,553.471 Q1521.397,557.823 1525.493,560.255 Q1529.589,562.687 1534.197,562.687 z" fill="#1E1E1E"/>
      <path d="M1611.312,578.175 Q1601.585,578.175 1593.776,573.695 Q1585.969,569.215 1581.552,561.343 Q1577.137,553.471 1577.137,543.615 Q1577.137,534.271 1581.489,526.271 Q1585.841,518.271 1593.521,513.535 Q1601.201,508.799 1610.673,508.799 Q1620.785,508.799 1628.081,513.151 Q1635.377,517.503 1639.153,525.055 Q1642.929,532.607 1642.929,541.823 Q1642.929,544.767 1642.545,547.455 L1593.521,547.455 Q1594.801,555.263 1599.729,559.295 Q1604.656,563.327 1611.569,563.327 Q1617.328,563.327 1621.489,560.831 Q1625.649,558.335 1628.081,554.111 L1641.649,560.767 Q1631.665,578.175 1611.312,578.175 z M1626.801,535.551 Q1626.545,532.479 1624.561,529.471 Q1622.577,526.463 1619.057,524.479 Q1615.536,522.495 1610.801,522.495 Q1604.785,522.495 1600.497,526.015 Q1596.208,529.535 1594.289,535.551 z" fill="#1E1E1E"/>
      <path d="M1654.884,510.847 L1670.628,510.847 L1670.628,519.551 L1671.652,519.551 Q1674.084,514.943 1679.204,511.935 Q1684.324,508.927 1690.468,508.927 Q1694.948,508.927 1698.66,510.335 L1698.66,527.103 Q1695.204,525.823 1692.836,525.247 Q1690.468,524.671 1687.78,524.671 Q1680.356,524.671 1676.004,530.047 Q1671.652,535.423 1671.652,543.615 L1671.652,576.127 L1654.884,576.127 z" fill="#1E1E1E"/>
      <path d="M1011.423,399.175 Q998.239,399.175 987.167,392.967 Q976.095,386.759 969.567,375.815 Q963.039,364.871 963.039,351.303 Q963.039,337.735 969.567,326.791 Q976.095,315.847 987.167,309.639 Q998.239,303.431 1011.423,303.431 Q1022.175,303.431 1031.071,307.207 Q1039.967,310.983 1046.367,317.895 L1034.463,329.543 Q1029.855,324.679 1024.287,322.247 Q1018.719,319.815 1011.295,319.815 Q1002.847,319.815 995.807,323.719 Q988.767,327.623 984.607,334.855 Q980.447,342.087 980.447,351.303 Q980.447,360.519 984.671,367.751 Q988.895,374.983 995.999,378.887 Q1003.103,382.791 1011.551,382.791 Q1024.351,382.791 1032.543,375.239 Q1035.103,372.935 1037.023,369.351 Q1038.943,365.767 1039.839,361.543 L1011.039,361.543 L1011.039,346.823 L1055.967,346.823 Q1056.863,350.407 1056.863,354.887 Q1056.863,363.975 1054.111,371.783 Q1051.359,379.591 1045.727,385.479 Q1039.583,392.135 1030.879,395.655 Q1022.175,399.175 1011.423,399.175 z" fill="#1E1E1E"/>
      <path d="M1100.814,399.175 Q1090.702,399.175 1082.766,394.631 Q1074.83,390.087 1070.414,382.215 Q1065.998,374.343 1065.998,364.487 Q1065.998,354.759 1070.414,346.823 Q1074.83,338.887 1082.766,334.343 Q1090.702,329.799 1100.814,329.799 Q1110.798,329.799 1118.734,334.343 Q1126.67,338.887 1131.086,346.823 Q1135.502,354.759 1135.502,364.487 Q1135.502,374.343 1131.086,382.215 Q1126.67,390.087 1118.734,394.631 Q1110.798,399.175 1100.814,399.175 z M1100.814,383.687 Q1105.678,383.687 1109.774,381.383 Q1113.87,379.079 1116.302,374.727 Q1118.734,370.375 1118.734,364.487 Q1118.734,358.727 1116.302,354.375 Q1113.87,350.023 1109.774,347.719 Q1105.678,345.415 1100.814,345.415 Q1095.95,345.415 1091.854,347.719 Q1087.758,350.023 1085.262,354.375 Q1082.766,358.727 1082.766,364.487 Q1082.766,370.247 1085.262,374.663 Q1087.758,379.079 1091.854,381.383 Q1095.95,383.687 1100.814,383.687 z" fill="#1E1E1E"/>
      <path d="M1178.723,399.175 Q1168.611,399.175 1160.675,394.631 Q1152.739,390.087 1148.323,382.215 Q1143.907,374.343 1143.907,364.487 Q1143.907,354.759 1148.323,346.823 Q1152.739,338.887 1160.675,334.343 Q1168.611,329.799 1178.723,329.799 Q1188.707,329.799 1196.643,334.343 Q1204.579,338.887 1208.995,346.823 Q1213.411,354.759 1213.411,364.487 Q1213.411,374.343 1208.995,382.215 Q1204.579,390.087 1196.643,394.631 Q1188.707,399.175 1178.723,399.175 z M1178.723,383.687 Q1183.587,383.687 1187.683,381.383 Q1191.779,379.079 1194.211,374.727 Q1196.643,370.375 1196.643,364.487 Q1196.643,358.727 1194.211,354.375 Q1191.779,350.023 1187.683,347.719 Q1183.587,345.415 1178.723,345.415 Q1173.859,345.415 1169.763,347.719 Q1165.667,350.023 1163.171,354.375 Q1160.675,358.727 1160.675,364.487 Q1160.675,370.247 1163.171,374.663 Q1165.667,379.079 1169.763,381.383 Q1173.859,383.687 1178.723,383.687 z" fill="#1E1E1E"/>
      <path d="M1255.318,426.823 Q1242.902,426.823 1234.71,421.255 Q1226.518,415.687 1223.702,407.879 L1239.446,401.479 Q1241.494,406.343 1245.718,409.159 Q1249.942,411.975 1255.318,411.975 Q1263.254,411.975 1267.926,407.111 Q1272.598,402.247 1272.598,393.287 L1272.598,388.167 L1271.574,388.167 Q1268.502,392.519 1263.51,394.823 Q1258.518,397.127 1252.118,397.127 Q1244.054,397.127 1237.078,392.967 Q1230.102,388.807 1225.878,381.191 Q1221.654,373.575 1221.654,363.463 Q1221.654,353.351 1225.878,345.735 Q1230.102,338.119 1237.078,333.959 Q1244.054,329.799 1252.118,329.799 Q1258.518,329.799 1263.51,332.103 Q1268.502,334.407 1271.574,338.759 L1272.598,338.759 L1272.598,331.847 L1288.726,331.847 L1288.726,392.647 Q1288.726,403.143 1284.63,410.823 Q1280.534,418.503 1272.982,422.663 Q1265.43,426.823 1255.318,426.823 z M1255.574,381.895 Q1262.614,381.895 1267.606,376.967 Q1272.598,372.039 1272.598,363.463 Q1272.598,354.631 1267.67,349.831 Q1262.742,345.031 1255.574,345.031 Q1248.406,345.031 1243.414,349.895 Q1238.422,354.759 1238.422,363.463 Q1238.422,372.167 1243.414,377.031 Q1248.406,381.895 1255.574,381.895 z" fill="#1E1E1E"/>
      <path d="M1304.138,305.479 L1320.906,305.479 L1320.906,397.127 L1304.138,397.127 z" fill="#1E1E1E"/>
      <path d="M1367.102,399.175 Q1357.374,399.175 1349.566,394.695 Q1341.758,390.215 1337.342,382.343 Q1332.926,374.471 1332.926,364.615 Q1332.926,355.271 1337.278,347.271 Q1341.63,339.271 1349.31,334.535 Q1356.99,329.799 1366.462,329.799 Q1376.574,329.799 1383.87,334.151 Q1391.166,338.503 1394.942,346.055 Q1398.718,353.607 1398.718,362.823 Q1398.718,365.767 1398.334,368.455 L1349.31,368.455 Q1350.59,376.263 1355.518,380.295 Q1360.446,384.327 1367.358,384.327 Q1373.118,384.327 1377.278,381.831 Q1381.438,379.335 1383.87,375.111 L1397.438,381.767 Q1387.454,399.175 1367.102,399.175 z M1382.59,356.551 Q1382.334,353.479 1380.35,350.471 Q1378.366,347.463 1374.846,345.479 Q1371.326,343.495 1366.59,343.495 Q1360.574,343.495 1356.286,347.015 Q1351.998,350.535 1350.078,356.551 z" fill="#1E1E1E"/>
    </g>
    <g>
      <path d="M549.128,378.391 L549.128,378.391 C573.71,412.595 565.908,460.251 531.704,484.832 L368.782,601.92 C334.578,626.502 286.922,618.701 262.34,584.497 L262.34,584.497 C237.759,550.292 245.559,502.636 279.764,478.056 L442.687,360.967 C476.891,336.385 524.546,344.187 549.128,378.391" fill="#EA4335"/>
      <path d="M549.628,378.891 L549.628,378.891 C574.21,413.095 566.408,460.751 532.204,485.332 L369.282,602.42 C335.078,627.002 287.422,619.201 262.84,584.997 L262.84,584.997 C238.259,550.792 246.059,503.136 280.264,478.556 L443.187,361.467 C477.391,336.885 525.046,344.687 549.628,378.891 z" fill-opacity="0" stroke="#1E1E1E" stroke-width="20"/>
      <path d="M262.341,495.504 L262.341,495.504 C237.758,529.708 245.56,577.364 279.764,601.944 L442.686,719.033 C476.891,743.615 524.546,735.813 549.129,701.609 L549.129,701.609 C573.709,667.405 565.909,619.749 531.705,595.168 L368.781,478.08 C334.577,453.498 286.923,461.299 262.341,495.504" fill="#4285F4"/>
      <path d="M262.841,496.004 L262.841,496.004 C238.258,530.208 246.06,577.864 280.264,602.444 L443.186,719.533 C477.391,744.115 525.046,736.313 549.629,702.109 L549.629,702.109 C574.209,667.905 566.409,620.249 532.205,595.668 L369.281,478.58 C335.077,453.998 287.423,461.799 262.841,496.004 z" fill-opacity="0" stroke="#1E1E1E" stroke-width="20"/>
      <path d="M942.811,495.504 L942.811,495.504 C967.393,529.708 959.591,577.364 925.387,601.944 L762.465,719.033 C728.261,743.615 680.605,735.813 656.023,701.609 L656.023,701.609 C631.442,667.405 639.242,619.749 673.446,595.168 L836.37,478.08 C870.574,453.498 918.229,461.299 942.811,495.504" fill="#F9AB00"/>
      <path d="M943.311,496.004 L943.311,496.004 C967.893,530.208 960.091,577.864 925.887,602.444 L762.965,719.533 C728.761,744.115 681.105,736.313 656.523,702.109 L656.523,702.109 C631.942,667.905 639.742,620.249 673.946,595.668 L836.87,478.58 C871.074,453.998 918.729,461.799 943.311,496.004 z" fill-opacity="0" stroke="#0D0D0D" stroke-width="20"/>
      <path d="M656.023,378.391 L656.023,378.391 C631.441,412.595 639.243,460.251 673.447,484.832 L836.369,601.92 C870.573,626.502 918.229,618.701 942.811,584.497 L942.811,584.497 C967.392,550.292 959.592,502.636 925.388,478.056 L762.464,360.967 C728.26,336.385 680.605,344.187 656.023,378.391" fill="#34A853"/>
      <path d="M656.523,378.891 L656.523,378.891 C631.941,413.095 639.743,460.751 673.947,485.332 L836.869,602.42 C871.073,627.002 918.729,619.201 943.311,584.997 L943.311,584.997 C967.892,550.792 960.092,503.136 925.888,478.556 L762.964,361.467 C728.76,336.885 681.105,344.687 656.523,378.891 z" fill-opacity="0" stroke="#0D0D0D" stroke-width="20"/>
    </g>
  </g>
</svg>
