<?xml version="1.0" encoding="UTF-8"?>
<!-- Generated by Pixelmator Pro 3.6.9 -->
<svg
  width="1620"
  height="615"
  viewBox="0 0 1620 615"
  xmlns="http://www.w3.org/2000/svg"
  class="object-contain h-56 w-3/4 md:w-full px-2 mx-auto text-[#003087] dark:text-white"
>
  <g id="campus">
    <path
      id="Path"
      fill="none"
      stroke="#000000"
      stroke-width="7.5"
      d="M 3.463559 424.069855 L 1619.922729 424.069855"
    />
    <path
      id="path1"
      fill="#000000"
      stroke="none"
      d="M 663.327209 546.773315 L 606.176575 473.77179 C 604.996216 472.257751 603.478027 468.715149 600.445374 468.715149 C 598.252991 468.715149 594.206665 469.391388 589.483765 469.391388 C 584.090881 469.391388 576.505676 468.715149 574.649536 468.715149 C 571.614807 468.715149 569.422485 468.885193 569.422485 471.075836 C 569.422485 473.605988 572.120972 473.605988 575.66156 473.77179 C 583.24884 473.77179 584.429199 475.460449 584.429199 488.440216 L 584.429199 544.578918 C 584.429199 567.506653 583.75293 568.182739 576.335693 569.194824 C 569.254639 570.037231 568.580505 570.207214 568.580505 572.227478 C 568.580505 574.421814 570.940735 574.421814 571.44696 574.421814 C 574.481262 574.421814 582.068481 573.745728 590.665771 573.745728 C 595.892761 573.745728 602.299744 574.421814 604.322144 574.421814 C 605.668274 574.421814 608.368896 574.421814 608.368896 572.061646 C 608.368896 569.86731 607.524841 569.86731 600.781555 569.361145 C 593.194275 568.688965 591.171997 567.004517 591.004028 542.558655 L 590.329956 484.561798 L 590.665771 484.225586 L 662.485291 573.575745 C 665.351685 577.284119 666.531921 577.454102 667.880188 577.454102 C 670.408325 577.454102 670.408325 574.251953 670.408325 572.567505 L 670.07251 484.391785 C 669.902588 475.120056 672.4328 474.784241 678.6698 474.112183 C 683.558472 473.77179 685.242554 473.266113 685.242554 471.24585 C 685.242554 468.715149 683.052246 468.715149 682.210327 468.715149 C 679.343872 468.715149 666.699951 469.391388 664.171387 469.391388 C 661.976929 469.391388 652.53772 468.715149 650.683289 468.715149 C 649.502991 468.715149 646.468689 468.715149 646.468689 471.075836 C 646.468689 473.435974 648.997192 473.605988 654.053833 473.77179 C 660.799072 474.112183 662.651123 474.112183 662.991394 494.509277 L 663.665588 546.433411 L 663.327209 546.773315 L 663.327209 546.773315 Z"
    />
    <path
      id="path2"
      fill="#000000"
      fill-rule="evenodd"
      stroke="none"
      d="M 774.200134 534.295654 C 774.200134 508.841461 752.788635 496.193329 733.569641 496.193329 C 708.449768 496.193329 692.603088 516.594604 692.603088 535.813782 C 692.603088 554.86261 708.113403 575.433838 734.243835 575.433838 C 757.679443 575.433838 774.200134 556.717041 774.200134 534.295654 L 774.200134 534.295654 Z M 710.135864 532.777405 C 710.135864 512.209961 720.081665 500.072113 732.221558 500.072113 C 750.596191 500.072113 756.665344 524.348083 756.665344 535.983765 C 756.665344 555.875 746.045776 571.555481 733.73761 571.555481 C 720.41748 571.555481 710.135864 553.684387 710.135864 532.777405 L 710.135864 532.777405 Z"
    />
    <path
      id="path3"
      fill="#000000"
      stroke="none"
      d="M 811.012573 497.545776 C 811.012573 496.027527 810.840698 494.67926 809.158142 494.67926 C 808.312012 494.67926 804.437317 498.553986 804.099487 498.89386 C 800.558899 502.602386 790.949341 507.829407 787.072937 509.177673 C 785.048462 509.683868 784.374451 510.355896 784.374451 511.537933 C 784.374451 513.392273 786.058472 513.392273 786.566711 513.392273 C 792.973633 513.728088 795.16394 514.064392 795.16394 524.68811 L 795.16394 557.223267 C 795.16394 566.664673 795.16394 568.518982 787.747009 569.531006 C 783.868225 570.037231 782.690002 570.71344 782.690002 572.227478 C 782.690002 574.421814 784.374451 574.421814 785.554321 574.421814 C 788.252808 574.421814 800.558899 573.745728 803.089111 573.745728 C 806.121765 573.745728 819.775696 574.421814 822.64209 574.421814 C 823.994507 574.421814 826.184814 574.421814 826.184814 572.061646 C 826.184814 569.531006 823.824524 569.361145 820.116089 569.194824 C 811.516785 568.688965 811.516785 564.138184 811.516785 557.223267 L 811.516785 525.194336 C 811.516785 511.197937 816.407227 508.671448 819.775696 508.671448 C 820.788147 508.671448 822.136353 509.00766 825.002747 512.209961 C 827.703308 515.246704 830.063599 516.594604 833.771973 516.594604 C 837.986694 516.594604 844.055725 513.898499 844.055725 506.983337 C 844.055725 500.242126 837.986694 496.869537 831.91803 496.869537 C 822.136353 496.869537 813.877075 506.481171 813.54071 506.983337 C 813.374878 507.323212 812.528809 508.335632 812.024658 508.335632 C 811.012573 508.335632 811.012573 506.983337 811.012573 505.974976 L 811.012573 497.545776 L 811.012573 497.545776 Z"
    />
    <path
      id="path4"
      fill="#000000"
      stroke="none"
      d="M 874.400391 509.513489 C 874.400391 505.974976 874.736572 505.634949 877.602966 505.634949 C 885.692383 505.634949 889.570801 505.974976 892.437195 505.974976 C 894.627441 505.974976 895.133667 505.469147 895.473694 502.432373 C 895.809875 499.400085 894.627441 499.060181 893.279236 499.060181 C 891.761108 499.060181 890.582703 499.400085 888.222595 499.400085 L 878.610779 499.400085 C 875.072449 499.400085 874.400391 498.723877 874.400391 495.521301 L 874.400391 484.055603 C 874.400391 481.359131 872.712158 481.359131 872.210144 481.359131 C 871.02771 481.359131 870.015686 482.541534 869.343628 483.383575 C 863.776611 491.978577 858.549927 496.533722 854.505371 498.553986 L 849.954407 500.914124 C 849.278687 501.254547 847.424255 502.266571 847.424255 503.950623 C 847.424255 505.804962 849.448608 505.804962 850.290649 505.804962 C 851.638855 505.804962 852.8172 505.634949 854.169128 505.634949 C 856.695618 505.469147 858.043762 506.481171 858.043762 508.671448 L 858.043762 557.057068 C 858.043762 569.700989 866.307251 575.433838 875.072449 575.433838 C 887.380554 575.433838 898.170044 565.146362 898.170044 562.619934 C 898.170044 561.943726 897.664307 561.101807 896.821777 561.101807 C 896.316101 561.101807 895.473694 561.437866 894.967834 561.777893 C 889.068665 565.486389 886.704346 565.992615 884.177856 565.992615 C 875.40863 565.992615 874.400391 558.235291 874.400391 550.64801 L 874.400391 509.513489 L 874.400391 509.513489 Z"
    />
    <path
      id="path5"
      fill="#000000"
      stroke="none"
      d="M 913.895203 557.223267 C 913.895203 566.664673 913.895203 568.518982 906.644104 569.531006 C 902.76532 570.037231 901.583313 570.71344 901.583313 572.227478 C 901.583313 574.421814 903.271545 574.421814 904.449768 574.421814 C 907.149963 574.421814 915.073486 573.745728 921.984558 573.745728 C 929.571472 573.745728 936.98877 574.421814 939.685242 574.421814 C 940.867554 574.421814 942.551636 574.421814 942.551636 572.397522 C 942.551636 570.879272 941.709595 570.037231 937.494995 569.531006 C 930.243896 568.518982 930.243896 566.664673 930.243896 557.223267 L 930.243896 521.987427 C 930.243896 505.128876 948.454468 505.128876 949.802734 505.128876 C 965.143127 505.128876 965.143127 518.11322 965.143127 523.676025 L 965.143127 557.223267 C 965.143127 566.664673 965.143127 568.518982 957.892029 569.531006 C 954.017334 570.037231 952.835388 570.71344 952.835388 572.227478 C 952.835388 574.421814 954.52356 574.421814 955.701782 574.421814 C 958.401917 574.421814 965.985168 573.745728 973.236633 573.745728 C 983.860352 573.745728 986.216431 574.421814 988.406677 574.421814 C 993.297546 574.421814 993.803589 574.421814 993.803589 572.397522 C 993.803589 571.049255 992.96167 570.207214 988.746948 569.700989 C 981.495972 568.688965 981.495972 566.664673 981.495972 557.223267 L 981.495972 520.975525 C 981.495972 514.234314 981.495972 496.193329 957.555847 496.193329 C 949.968933 496.193329 942.721619 498.387665 932.437988 508.335632 C 932.267944 508.501434 931.762146 509.00766 931.25592 509.00766 C 930.243896 509.00766 930.243896 507.659424 930.243896 506.141296 L 930.243896 474.448029 C 930.243896 465.176636 930.753784 464.330566 930.753784 463.152344 C 930.753784 462.310303 930.753784 460.62204 928.389404 460.62204 C 927.211182 460.62204 925.523071 461.634094 923.332764 462.816498 C 918.616028 465.342468 913.555237 467.366943 905.295898 468.885193 C 904.113586 469.051392 902.935364 469.7276 902.935364 471.24585 C 902.935364 472.929779 903.943604 473.435974 905.295898 473.605988 C 913.555237 474.784241 913.895203 476.472473 913.895203 488.440216 L 913.895203 557.223267 L 913.895203 557.223267 Z"
    />
    <path
      id="path6"
      fill="#000000"
      stroke="none"
      d="M 1141.689209 477.480713 C 1141.013062 472.929779 1140.171143 471.411652 1132.583862 470.063416 C 1121.122192 468.208954 1118.255859 467.703125 1110.502197 467.703125 C 1066.501709 467.703125 1046.266235 497.881958 1046.266235 521.315369 C 1046.266235 542.724854 1064.97937 575.433838 1107.635864 575.433838 C 1124.660645 575.433838 1135.956421 570.207214 1138.652832 568.518982 C 1142.195435 566.49884 1142.535522 564.980225 1142.701294 562.619934 L 1144.049561 548.287842 C 1144.049561 547.109619 1144.049561 545.59137 1141.519287 545.59137 C 1139.834839 545.59137 1138.486572 548.121521 1138.150879 548.793579 C 1131.069702 561.777893 1123.648315 571.219238 1108.14209 571.219238 C 1082.684082 571.219238 1068.857788 544.243103 1068.857788 520.63916 C 1068.857788 499.060181 1081.671753 472.087738 1109.320313 472.087738 C 1124.830688 472.087738 1131.069702 480.010864 1137.138428 489.116425 C 1138.992798 491.812775 1140.005127 492.149109 1141.182983 492.149109 C 1143.20752 492.149109 1143.20752 490.970886 1143.20752 489.282623 L 1141.689209 477.480713 L 1141.689209 477.480713 Z"
    />
    <path
      id="path7"
      fill="#000000"
      fill-rule="evenodd"
      stroke="none"
      d="M 1194.593018 525.360107 C 1194.593018 528.396484 1194.427124 529.744751 1190.378418 531.429199 C 1164.414307 541.712463 1155.479126 548.963928 1155.479126 561.271667 C 1155.479126 563.798157 1156.321167 575.433838 1168.629272 575.433838 C 1176.216187 575.433838 1185.321655 569.194824 1192.40271 563.461975 C 1192.40271 563.461975 1193.245117 562.789917 1193.580933 562.789917 C 1194.087158 562.789917 1194.427124 562.789917 1195.941284 565.992615 C 1197.965698 570.037231 1201.168213 575.093994 1207.743164 575.093994 C 1215.1604 575.093994 1225.444214 567.170837 1225.444214 563.126099 C 1225.444214 562.619934 1224.937988 561.60791 1223.925537 561.60791 C 1223.087769 561.60791 1222.913574 561.777893 1221.059204 563.291931 C 1219.710938 564.304382 1218.026978 564.980225 1216.172485 564.980225 C 1211.452026 564.980225 1210.945801 560.765442 1210.945801 555.538818 L 1210.945801 508.501434 C 1210.945801 501.590363 1207.066895 496.193329 1191.220825 496.193329 C 1165.596558 496.193329 1154.977051 513.558228 1154.977051 519.291077 C 1154.977051 521.485413 1156.827393 522.663635 1158.681396 522.663635 C 1158.855469 522.663635 1168.629272 521.987427 1171.325317 514.404297 C 1172.677734 510.525909 1176.38623 500.242126 1186.163696 500.242126 C 1194.087158 500.242126 1194.593018 508.335632 1194.593018 514.234314 L 1194.593018 525.360107 L 1194.593018 525.360107 Z M 1194.593018 546.773315 C 1194.593018 558.575317 1188.018066 564.644409 1180.434937 564.644409 C 1176.722412 564.644409 1172.847656 561.60791 1172.847656 553.514465 C 1172.847656 550.141785 1172.847656 543.736938 1183.467651 538.680298 C 1186.163696 537.332031 1190.378418 535.137573 1192.739014 535.137573 C 1193.580933 535.137573 1194.593018 535.307556 1194.593018 536.992004 L 1194.593018 546.773315 L 1194.593018 546.773315 Z"
    />
    <path
      id="path8"
      fill="#000000"
      stroke="none"
      d="M 1335.798462 557.057068 C 1335.798462 566.664673 1335.798462 568.518982 1328.883179 569.531006 C 1325.174805 570.037231 1323.826538 570.71344 1323.826538 572.227478 C 1323.826538 574.421814 1325.514648 574.421814 1326.692871 574.421814 C 1329.393555 574.421814 1334.450195 573.745728 1344.06189 573.745728 C 1352.823364 573.745728 1358.726074 574.421814 1361.256348 574.421814 C 1362.43457 574.421814 1364.122803 574.421814 1364.122803 572.397522 C 1364.122803 570.879272 1363.276611 570.037231 1359.06189 569.531006 C 1352.151245 568.518982 1352.151245 566.49884 1352.151245 557.057068 L 1352.151245 516.764954 C 1352.151245 511.197937 1350.296875 496.193329 1328.381592 496.193329 C 1322.478271 496.193329 1316.239258 498.553986 1309.498535 504.116821 C 1308.656128 504.79306 1304.777588 509.00766 1303.595337 509.00766 C 1302.923218 509.00766 1302.587402 508.671448 1300.226807 504.963074 C 1294.830078 496.363708 1284.376465 496.193329 1282.356201 496.193329 C 1274.768921 496.193329 1268.699707 497.20575 1259.258423 507.153198 C 1258.246582 508.165253 1257.404053 509.00766 1256.898193 509.00766 C 1256.226196 509.00766 1256.226196 508.501434 1256.226196 505.634949 L 1256.226196 497.375763 C 1256.226196 495.857513 1255.885742 494.339264 1254.371704 494.339264 C 1253.189453 494.339264 1251.841187 496.027527 1250.65918 497.375763 C 1245.436279 503.444824 1234.646729 507.995239 1233.464355 508.335632 C 1231.610352 508.841461 1230.934082 509.513489 1230.934082 510.525909 C 1230.934082 512.716064 1232.958496 512.716064 1235.654541 512.886047 C 1240.71167 513.222412 1240.71167 516.930786 1240.71167 524.853882 L 1240.71167 557.223267 C 1240.71167 566.664673 1240.71167 568.518982 1233.464355 569.531006 C 1229.755859 570.037231 1228.237671 570.71344 1228.237671 572.227478 C 1228.237671 574.421814 1230.091675 574.421814 1231.444092 574.421814 C 1234.136353 574.421814 1241.051636 573.745728 1248.80481 573.745728 C 1257.404053 573.745728 1263.643066 574.421814 1265.833374 574.421814 C 1267.351929 574.421814 1269.036011 574.421814 1269.036011 572.397522 C 1269.036011 570.879272 1268.19397 570.037231 1263.979248 569.531006 C 1257.068237 568.518982 1257.068237 566.49884 1257.068237 557.057068 L 1257.068237 521.315369 C 1257.068237 517.270813 1257.570313 514.234314 1259.764648 511.874146 C 1262.971069 508.335632 1266.675781 506.141296 1274.262695 506.141296 C 1285.894531 506.141296 1288.254883 515.58252 1288.254883 524.181885 L 1288.254883 557.057068 C 1288.254883 566.664673 1288.254883 568.518982 1281.344116 569.531006 C 1277.46521 570.037231 1276.286987 570.71344 1276.286987 572.227478 C 1276.286987 574.421814 1277.801636 574.421814 1279.153564 574.421814 C 1281.849976 574.421814 1287.242798 573.745728 1296.51416 573.745728 C 1305.619629 573.745728 1311.016602 574.421814 1313.713135 574.421814 C 1314.890991 574.421814 1316.57959 574.421814 1316.57959 572.397522 C 1316.57959 570.879272 1315.737061 570.037231 1311.518799 569.531006 C 1304.611816 568.518982 1304.611816 566.49884 1304.611816 557.057068 L 1304.611816 520.809204 C 1304.611816 517.270813 1304.777588 513.728088 1307.137817 511.197937 C 1309.162354 509.177673 1314.04895 505.469147 1321.63623 505.469147 C 1335.798462 505.469147 1335.798462 516.930786 1335.798462 521.821594 L 1335.798462 557.057068 L 1335.798462 557.057068 Z"
    />
    <path
      id="path9"
      fill="#000000"
      fill-rule="evenodd"
      stroke="none"
      d="M 1381.422852 592.964539 C 1381.422852 600.216064 1381.422852 604.596497 1372.827759 605.272705 C 1369.450928 605.438477 1366.924438 605.608521 1366.924438 607.969177 C 1366.924438 610.499329 1369.114746 610.499329 1370.463013 610.499329 C 1372.317505 610.499329 1375.52002 609.823608 1389.852173 609.823608 C 1400.978027 609.823608 1406.880737 610.499329 1409.071045 610.499329 C 1410.423462 610.499329 1412.613647 610.499329 1412.613647 608.13916 C 1412.613647 605.608521 1410.253418 605.438477 1406.710938 605.272705 C 1397.775391 604.596497 1397.775391 600.216064 1397.775391 593.300781 L 1397.775391 575.600037 C 1397.775391 573.915649 1397.775391 572.061646 1399.799683 572.061646 C 1400.305908 572.061646 1401.147949 572.397522 1401.654175 572.567505 C 1405.026855 574.081909 1411.431641 575.433838 1416.658325 575.433838 C 1435.541382 575.433838 1458.132935 560.595581 1458.132935 534.465576 C 1458.132935 511.537933 1441.610352 496.193329 1423.569458 496.193329 C 1419.019043 496.193329 1414.128174 496.699524 1401.824097 506.141296 C 1401.317871 506.481171 1400.471802 507.153198 1399.629761 507.153198 C 1397.775391 507.153198 1397.775391 505.469147 1397.775391 503.78064 L 1397.775391 496.533722 C 1397.775391 495.015472 1398.111572 493.161011 1396.257202 493.161011 C 1395.078857 493.161011 1394.236816 493.833038 1393.054932 495.351288 C 1387.661987 501.590363 1380.074585 505.128876 1377.208252 506.141296 C 1371.645386 508.335632 1371.13916 508.501434 1371.13916 510.189697 C 1371.13916 512.379822 1372.827759 512.379822 1375.52002 512.546143 C 1381.252808 512.716064 1381.422852 514.910522 1381.422852 525.700012 L 1381.422852 592.964539 L 1381.422852 592.964539 Z M 1397.775391 521.315369 C 1397.775391 517.606995 1397.775391 506.817017 1413.456177 506.817017 C 1427.281982 506.817017 1440.428101 517.437012 1440.428101 538.004028 C 1440.428101 558.911499 1427.784058 571.385437 1413.961914 571.385437 C 1409.071045 571.385437 1397.775391 569.194824 1397.775391 554.526794 L 1397.775391 521.315369 L 1397.775391 521.315369 Z"
    />
    <path
      id="path10"
      fill="#000000"
      stroke="none"
      d="M 1529.523315 553.514465 C 1529.523315 565.652588 1515.70105 565.652588 1512.498413 565.652588 C 1498.506226 565.652588 1495.639771 557.563293 1495.639771 550.64801 L 1495.639771 505.128876 C 1495.639771 503.950623 1495.805542 502.768585 1495.805542 501.420349 C 1495.805542 499.56604 1494.793701 499.060181 1493.445435 499.060181 C 1492.603394 499.060181 1491.255127 499.060181 1489.400635 499.230194 C 1487.546753 499.230194 1485.352295 499.400085 1482.825806 499.400085 C 1478.611206 499.400085 1472.035889 498.723877 1469.845703 498.723877 C 1468.663696 498.723877 1466.979126 498.723877 1466.979126 500.748322 C 1466.979126 502.266571 1467.821167 503.108612 1472.035889 503.614807 C 1479.283203 504.62674 1479.283203 506.481171 1479.283203 516.088745 L 1479.283203 549.975952 C 1479.283203 573.575745 1496.817993 575.433838 1501.708984 575.433838 C 1507.943848 575.433838 1515.70105 572.733704 1525.142334 565.652588 C 1526.320557 564.644409 1527.162598 564.304382 1527.838867 564.304382 C 1528.850708 564.304382 1529.021118 565.316406 1529.021118 566.32843 L 1529.021118 572.903687 C 1529.021118 573.915649 1529.021118 576.105896 1531.377197 576.105896 C 1531.717651 576.105896 1533.06543 575.935913 1534.754028 575.433838 L 1553.96875 570.037231 C 1554.814819 569.86731 1556.49939 569.194824 1556.49939 567.847046 C 1556.49939 566.49884 1554.64502 566.158447 1553.632935 566.158447 C 1547.393921 565.822632 1545.879761 565.486389 1545.879761 558.235291 L 1545.879761 504.116821 C 1545.879761 500.578308 1545.879761 499.060181 1543.519165 499.060181 C 1542.677124 499.060181 1542.000977 499.060181 1540.989014 499.230194 C 1540.146973 499.230194 1538.964478 499.400085 1536.944214 499.400085 C 1529.021118 499.400085 1522.782104 498.723877 1520.085693 498.723877 C 1518.90332 498.723877 1517.219238 498.723877 1517.219238 500.748322 C 1517.219238 502.266571 1518.061279 502.938599 1522.275879 503.614807 C 1529.523315 504.62674 1529.523315 506.481171 1529.523315 515.918762 L 1529.523315 553.514465 L 1529.523315 553.514465 Z"
    />
    <path
      id="path11"
      fill="#000000"
      stroke="none"
      d="M 1564.811401 564.304382 C 1564.811401 568.352783 1564.811401 569.700989 1566.835693 570.71344 C 1567.50769 571.219238 1577.961182 575.433838 1588.074829 575.433838 C 1610.330566 575.433838 1620.61377 560.931763 1620.61377 548.287842 C 1620.61377 533.789307 1606.451782 528.060669 1600.718872 525.530151 C 1583.694458 518.449036 1579.985474 516.930786 1579.985474 510.189697 C 1579.985474 504.116821 1586.220459 500.072113 1593.471802 500.072113 C 1604.7677 500.072113 1609.318115 509.00766 1610.330566 512.209961 C 1611.342529 515.412537 1612.18457 515.752563 1613.366943 515.752563 C 1615.050903 515.752563 1615.387207 513.728088 1615.387207 513.056091 L 1616.063354 503.108612 C 1616.063354 500.412109 1616.063354 498.553986 1611.848755 498.047791 C 1610.500488 498.047791 1598.022461 496.193329 1595.495972 496.193329 C 1573.070679 496.193329 1565.487427 509.683868 1565.487427 519.291077 C 1565.487427 531.429199 1577.459351 536.149597 1587.402832 540.028503 C 1599.03479 544.578918 1606.787964 548.457703 1606.787964 557.39325 C 1606.787964 566.158447 1598.022461 571.219238 1590.435059 571.219238 C 1576.783325 571.219238 1571.892456 556.550842 1571.050415 553.514465 C 1570.208008 550.312195 1569.361816 548.793579 1567.50769 548.793579 C 1565.317139 548.793579 1565.147217 551.324219 1565.147217 551.830444 L 1564.811401 564.304382 L 1564.811401 564.304382 Z"
    />
  </g>
  <g id="logo">
    <g id="Group">
      <path
        id="path12"
        fill="#000000"
        stroke="none"
        d="M 881.980469 228.055206 C 881.134216 222.362793 880.079956 220.464478 870.591309 218.776093 C 856.252075 216.456482 852.663391 215.824005 842.962463 215.824005 C 787.921204 215.824005 762.612122 253.574005 762.612122 282.889435 C 762.612122 309.673584 786.022888 350.591553 839.382141 350.591553 C 860.679199 350.591553 874.810852 344.048584 878.184204 341.940582 C 882.611267 339.409912 883.03418 337.513611 883.245789 334.559906 L 884.93457 316.63147 C 884.93457 315.1586 884.93457 313.262329 881.768738 313.262329 C 879.661255 313.262329 877.972473 316.419739 877.549194 317.266479 C 868.695007 333.501953 859.413696 345.318237 840.012573 345.318237 C 808.164551 345.318237 790.871216 311.569855 790.871216 282.046906 C 790.871216 255.051056 806.901245 221.309052 841.485779 221.309052 C 860.890747 221.309052 868.695007 231.218994 876.287903 242.608154 C 878.607117 245.983643 879.872437 246.404419 881.345825 246.404419 C 883.876587 246.404419 883.876587 244.927368 883.876587 242.819855 L 881.980469 228.055206 L 881.980469 228.055206 Z"
      />
      <path
        id="path13"
        fill="#000000"
        fill-rule="evenodd"
        stroke="none"
        d="M 1001.09668 299.126953 C 1001.09668 267.28479 974.310364 251.466522 950.270813 251.466522 C 918.845825 251.466522 899.02124 276.985321 899.02124 301.022736 C 899.02124 324.859009 918.426697 350.591553 951.112915 350.591553 C 980.426208 350.591553 1001.09668 327.178589 1001.09668 299.126953 L 1001.09668 299.126953 Z M 920.953308 297.230682 C 920.953308 271.502319 933.39624 256.316528 948.582031 256.316528 C 971.567871 256.316528 979.1604 286.685699 979.1604 301.234436 C 979.1604 326.120636 965.875427 345.733154 950.478333 345.733154 C 933.819519 345.733154 920.953308 323.378143 920.953308 297.230682 L 920.953308 297.230682 Z"
      />
      <path
        id="path14"
        fill="#000000"
        stroke="none"
        d="M 1026.267578 328.024811 C 1026.267578 339.62149 1026.267578 341.940582 1017.197876 343.202362 C 1012.559204 343.836975 1010.870422 344.683228 1010.870422 346.579376 C 1010.870422 349.321899 1012.978333 349.321899 1015.509216 349.321899 C 1019.940369 349.321899 1022.471313 348.475647 1036.387085 348.475647 C 1048.622437 348.475647 1052.838379 349.321899 1058.534546 349.321899 C 1060.011597 349.321899 1062.119629 349.321899 1062.119629 346.791077 C 1062.119629 344.894806 1061.065918 343.836975 1055.791992 343.202362 C 1046.722534 341.940582 1046.722534 339.62149 1046.722534 327.813232 L 1046.722534 231.640259 C 1046.722534 229.320679 1047.564697 216.24527 1047.564697 213.504425 C 1047.564697 211.396942 1047.564697 209.075684 1045.245483 209.075684 C 1044.19165 209.075684 1043.772461 209.286896 1038.710449 211.818207 C 1034.914185 213.716125 1026.055908 216.877747 1020.575012 218.143219 C 1014.454956 219.62027 1013.824524 219.832001 1013.824524 221.730316 C 1013.824524 224.049377 1014.878296 224.049377 1018.674561 224.470673 C 1026.267578 225.103149 1026.267578 232.274902 1026.267578 238.600311 L 1026.267578 328.024811 L 1026.267578 328.024811 Z"
      />
      <path
        id="path15"
        fill="#000000"
        stroke="none"
        d="M 1081.496216 328.024811 C 1081.496216 339.62149 1081.496216 341.940582 1072.43042 343.202362 C 1067.787842 343.836975 1066.099121 344.683228 1066.099121 346.579376 C 1066.099121 349.321899 1068.206543 349.321899 1070.737915 349.321899 C 1075.168823 349.321899 1077.699951 348.475647 1091.619995 348.475647 C 1103.851318 348.475647 1108.06665 349.321899 1113.763428 349.321899 C 1115.240479 349.321899 1117.348267 349.321899 1117.348267 346.791077 C 1117.348267 344.894806 1116.294556 343.836975 1111.020874 343.202362 C 1101.951294 341.940582 1101.951294 339.62149 1101.951294 327.813232 L 1101.951294 231.640259 C 1101.951294 229.320679 1102.797485 216.24527 1102.797485 213.504425 C 1102.797485 211.396942 1102.797485 209.075684 1100.474121 209.075684 C 1099.419922 209.075684 1099.001221 209.286896 1093.939209 211.818207 C 1090.142944 213.716125 1081.284546 216.877747 1075.803711 218.143219 C 1069.683838 219.62027 1069.053345 219.832001 1069.053345 221.730316 C 1069.053345 224.049377 1070.107056 224.049377 1073.90332 224.470673 C 1081.496216 225.103149 1081.496216 232.274902 1081.496216 238.600311 L 1081.496216 328.024811 L 1081.496216 328.024811 Z"
      />
      <path
        id="path16"
        fill="#000000"
        fill-rule="evenodd"
        stroke="none"
        d="M 1210.748413 285.841522 C 1214.125366 285.841522 1216.444946 285.841522 1216.444946 282.046906 C 1216.444946 274.875275 1209.69458 251.466522 1177.850464 251.466522 C 1149.167969 251.466522 1125.547485 271.711884 1125.547485 302.927277 C 1125.547485 332.240295 1146.637085 350.591553 1174.477051 350.591553 C 1201.259521 350.591553 1216.021729 332.028595 1216.021729 328.863159 C 1216.021729 328.236542 1215.602417 326.966858 1214.125366 326.966858 C 1212.860107 326.966858 1212.648682 327.178589 1209.48291 330.344025 C 1204.420776 335.194397 1195.77832 338.775269 1186.285522 338.775269 C 1164.560791 338.775269 1148.956299 320.643616 1148.956299 297.018951 C 1148.956299 286.053101 1150.856689 285.841522 1154.441284 285.841522 L 1210.748413 285.841522 L 1210.748413 285.841522 Z M 1157.395386 279.304382 C 1152.54126 279.304382 1151.69873 279.304382 1151.69873 276.985321 C 1151.69873 273.609802 1158.237915 256.316528 1177.219604 256.316528 C 1180.381226 256.316528 1194.720459 256.737793 1194.720459 269.180695 C 1194.720459 274.664063 1189.447144 279.304382 1180.381226 279.304382 L 1157.395386 279.304382 L 1157.395386 279.304382 Z"
      />
      <path
        id="path17"
        fill="#000000"
        fill-rule="evenodd"
        stroke="none"
        d="M 1305.206299 258.990234 C 1301.621704 258.990234 1301.621704 258.990234 1296.136719 256.670654 C 1288.124512 253.08609 1282.008667 251.608917 1273.78125 251.608917 C 1248.052979 251.608917 1232.024902 268.05777 1232.024902 285.141388 C 1232.024902 301.588593 1245.310425 308.34314 1253.745483 312.558624 C 1254.168823 312.770233 1255.010742 313.193512 1255.010742 313.819763 C 1255.010742 314.454803 1254.380371 314.877716 1252.060791 315.724457 L 1237.506348 320.786041 C 1234.979248 321.62439 1232.867554 323.316833 1232.867554 326.686096 C 1232.867554 331.536499 1242.567871 339.340607 1244.680054 340.813965 C 1249.530029 344.191132 1249.530029 344.61441 1249.530029 345.248932 C 1249.530029 346.298981 1245.310425 348.406494 1243.833374 349.252716 C 1235.821777 353.256866 1226.751709 358.115265 1226.751709 368.65387 C 1226.751709 385.947296 1251.637817 390.171082 1266.399902 390.171082 C 1300.986694 390.171082 1326.930786 372.031036 1326.930786 351.995605 C 1326.930786 341.660187 1318.07251 329.428619 1291.286255 329.640198 L 1265.346191 329.640198 C 1264.080933 329.640198 1255.434204 329.428619 1255.434204 323.105621 C 1255.434204 315.936035 1268.931274 315.512726 1274.835449 315.301025 C 1304.364258 314.454803 1315.330078 295.476929 1315.330078 284.295288 C 1315.330078 279.233551 1313.430054 273.963928 1311.952881 270.800293 C 1311.745361 270.588959 1311.322144 269.744385 1311.322144 268.902344 C 1311.322144 267.636871 1312.587524 267.425293 1315.118408 267.425293 L 1322.711304 267.425293 C 1325.661255 267.425293 1326.295776 267.215607 1326.295776 264.684814 C 1326.295776 264.261505 1326.084595 258.990234 1322.291992 258.990234 L 1305.206299 258.990234 L 1305.206299 258.990234 Z M 1292.763306 282.822296 C 1292.763306 310.873932 1276.523804 310.873932 1274.62793 310.873932 C 1265.134644 310.873932 1254.803223 302.434814 1254.803223 283.660645 C 1254.803223 265.738556 1264.080933 256.247711 1274.20459 256.247711 C 1289.178223 256.247711 1292.763306 275.0177 1292.763306 282.822296 L 1292.763306 282.822296 Z M 1280.950928 347.991455 C 1286.435791 347.991455 1309.00293 348.203156 1309.00293 362.330627 C 1309.00293 379.623932 1286.647461 384.051025 1275.470093 384.051025 C 1258.388306 384.051025 1246.575928 374.98526 1246.575928 363.380676 C 1246.575928 353.256866 1255.010742 347.145233 1258.176636 347.145233 C 1260.077148 347.145233 1268.300415 348.203156 1270.196777 348.203156 L 1280.950928 347.991455 L 1280.950928 347.991455 Z"
      />
      <path
        id="path18"
        fill="#000000"
        fill-rule="evenodd"
        stroke="none"
        d="M 1417.579956 285.841522 C 1420.953369 285.841522 1423.272949 285.841522 1423.272949 282.046906 C 1423.272949 274.875275 1416.526245 251.466522 1384.678345 251.466522 C 1355.99585 251.466522 1332.375 271.711884 1332.375 302.927277 C 1332.375 332.240295 1353.464966 350.591553 1381.305054 350.591553 C 1408.087158 350.591553 1422.849609 332.028595 1422.849609 328.863159 C 1422.849609 328.236542 1422.43042 326.966858 1420.953369 326.966858 C 1419.687866 326.966858 1419.476318 327.178589 1416.314453 330.344025 C 1411.25293 335.194397 1402.606323 338.775269 1393.113403 338.775269 C 1371.392944 338.775269 1355.78833 320.643616 1355.78833 297.018951 C 1355.78833 286.053101 1357.684082 285.841522 1361.269165 285.841522 L 1417.579956 285.841522 L 1417.579956 285.841522 Z M 1364.223267 279.304382 C 1359.368652 279.304382 1358.526733 279.304382 1358.526733 276.985321 C 1358.526733 273.609802 1365.06543 256.316528 1384.047485 256.316528 C 1387.209229 256.316528 1401.54834 256.737793 1401.54834 269.180695 C 1401.54834 274.664063 1396.278687 279.304382 1387.209229 279.304382 L 1364.223267 279.304382 L 1364.223267 279.304382 Z"
      />
      <path
        id="path19"
        fill="#000000"
        stroke="none"
        d="M 684.187866 27.388123 L 684.612976 27.388123 L 686.299561 118.497345 C 686.511292 128.409454 686.299561 133.68277 676.599182 134.525299 C 670.269958 134.946075 668.37384 135.157776 668.37384 138.109863 C 668.37384 140.640656 670.692871 140.852356 672.169922 140.852356 C 676.387451 140.852356 687.776611 140.010223 698.321716 140.010223 C 706.123779 140.010223 717.301636 140.852356 720.462891 140.852356 C 722.575073 140.852356 725.947876 140.852356 725.947876 137.900299 C 725.947876 135.579071 723.838379 134.736511 719.411255 134.736511 C 710.131653 134.736511 709.70874 131.782806 709.499146 118.709076 L 706.544922 29.076538 C 706.123779 17.898926 706.544922 15.156555 716.457031 14.526123 C 722.363342 14.102844 724.261658 14.102844 724.261658 11.360291 C 724.261658 8.619812 721.309631 8.619812 718.98999 8.619812 C 716.668762 8.619812 710.974182 9.46405 706.335388 9.46405 C 701.69458 9.46405 693.471191 8.619812 688.830383 8.619812 C 685.453369 8.619812 683.135803 9.041077 680.395447 16.00116 L 646.862854 101.625305 L 611.220398 13.68158 C 609.110413 8.619812 607.423767 8.619812 605.316223 8.619812 C 602.785461 8.619812 598.356262 9.46405 590.763367 9.46405 C 585.06665 9.46405 573.469971 8.619812 571.148743 8.619812 C 567.987061 8.619812 566.507935 9.673584 566.507935 11.360291 C 566.507935 13.68158 567.775391 14.946899 574.945007 15.156555 C 584.436218 15.368164 584.859192 15.368164 584.859192 25.703552 C 584.859192 53.539429 580.427917 115.754852 580.427917 117.231903 C 580.007141 131.994019 576.843323 133.259857 569.885437 134.315643 C 563.979126 135.157776 561.869202 135.579071 561.869202 138.109863 C 561.869202 140.431091 563.979126 140.852356 565.456238 140.852356 C 568.82959 140.852356 577.052917 140.010223 584.436218 140.010223 C 593.505859 140.010223 600.463745 140.852356 603.417908 140.852356 C 605.737488 140.852356 609.533752 140.852356 609.533752 137.688599 C 609.533752 134.736511 606.15625 134.525299 601.308289 134.525299 C 590.763367 134.315643 588.865051 133.259857 588.865051 100.15033 C 588.865051 78.42572 590.339966 54.383972 591.817078 30.974854 L 592.238342 30.974854 L 633.996704 132.417297 C 635.473755 136.00235 636.739136 137.688599 638.848816 137.688599 C 641.16626 137.688599 642.010437 135.790649 643.908752 130.728546 L 684.187866 27.388123 L 684.187866 27.388123 Z"
      />
      <path
        id="path20"
        fill="#000000"
        fill-rule="evenodd"
        stroke="none"
        d="M 749.407898 119.551086 C 749.407898 131.151978 749.407898 133.471069 740.336304 134.736511 C 735.69751 135.369385 734.010864 136.211395 734.010864 138.109863 C 734.010864 140.852356 736.120789 140.852356 737.595825 140.852356 C 741.182495 140.852356 750.880859 140.010223 759.741272 140.010223 C 769.439636 140.010223 778.511597 140.852356 781.673401 140.852356 C 783.150452 140.852356 785.257935 140.852356 785.257935 138.321564 C 785.257935 136.423126 784.204163 135.369385 778.932922 134.736511 C 769.86499 133.471069 769.86499 130.940247 769.86499 119.341553 L 769.86499 51.220215 C 769.86499 46.581543 769.86499 43.83905 767.543762 43.83905 C 765.857117 43.83905 759.320007 49.53363 757.842957 50.587341 C 754.256226 53.118652 749.407898 55.861023 739.28418 59.234009 C 736.753296 60.078552 735.909241 61.132324 735.909241 62.609497 C 735.909241 65.14032 739.28418 65.351868 739.917053 65.351868 C 747.507935 65.773132 749.407898 68.72522 749.407898 79.481506 L 749.407898 119.551086 L 749.407898 119.551086 Z M 771.130432 19.797424 C 771.130432 13.258606 766.066711 7.987 759.527527 7.987 C 752.569641 7.987 747.719116 13.68158 747.719116 19.585693 C 747.719116 25.703552 752.78125 30.974854 759.527527 30.974854 C 766.489624 30.974854 771.130432 25.280273 771.130432 19.797424 L 771.130432 19.797424 Z"
      />
      <path
        id="path21"
        fill="#000000"
        fill-rule="evenodd"
        stroke="none"
        d="M 842.584167 79.481506 C 842.584167 83.277771 842.372437 84.964355 837.310852 87.074402 C 804.834167 99.938599 793.654602 109.006134 793.654602 124.403656 C 793.654602 127.565277 794.710327 142.117706 810.107483 142.117706 C 819.598328 142.117706 830.983276 134.315643 839.841675 127.144012 C 839.841675 127.144012 840.895813 126.299438 841.318726 126.299438 C 841.949524 126.299438 842.372437 126.299438 844.272949 130.30777 C 846.803711 135.369385 850.807922 141.69693 859.035461 141.69693 C 868.3125 141.69693 881.178711 131.782806 881.178711 126.722717 C 881.178711 126.089874 880.54425 124.824402 879.278748 124.824402 C 878.224609 124.824402 878.013428 125.033966 875.693726 126.932281 C 874.009155 128.197754 871.901672 129.041931 869.577881 129.041931 C 863.673706 129.041931 863.039185 123.77066 863.039185 117.231903 L 863.039185 58.391968 C 863.039185 49.7453 858.188721 42.997009 838.364624 42.997009 C 806.309204 42.997009 793.021729 64.717346 793.021729 71.888611 C 793.021729 74.629456 795.342957 76.106506 797.662537 76.106506 C 797.874146 76.106506 810.107483 75.263977 813.478821 65.773132 C 815.167053 60.922791 819.805847 48.05658 832.037537 48.05658 C 841.949524 48.05658 842.584167 58.180237 842.584167 65.561462 L 842.584167 79.481506 L 842.584167 79.481506 Z M 842.584167 106.265656 C 842.584167 121.028137 834.36084 128.619019 824.871643 128.619019 C 820.229126 128.619019 815.378784 124.824402 815.378784 114.700714 C 815.378784 110.483185 815.378784 102.469421 828.664185 96.141968 C 832.037537 94.453552 837.310852 91.713196 840.264954 91.713196 C 841.318726 91.713196 842.584167 91.924438 842.584167 94.032288 L 842.584167 106.265656 L 842.584167 106.265656 Z"
      />
      <path
        id="path22"
        fill="#000000"
        stroke="none"
        d="M 1019.224121 119.129822 C 1019.224121 131.151978 1019.224121 133.471069 1010.577454 134.736511 C 1005.938782 135.369385 1004.25 136.211395 1004.25 138.109863 C 1004.25 140.852356 1006.362122 140.852356 1007.839172 140.852356 C 1011.212097 140.852356 1017.539551 140.010223 1029.559082 140.010223 C 1040.525391 140.010223 1047.906738 140.852356 1051.072144 140.852356 C 1052.544922 140.852356 1054.657104 140.852356 1054.657104 138.321564 C 1054.657104 136.423126 1053.603271 135.369385 1048.32959 134.736511 C 1039.682983 133.471069 1039.682983 130.940247 1039.682983 119.129822 L 1039.682983 68.72522 C 1039.682983 61.76532 1037.36377 42.997009 1009.946655 42.997009 C 1002.56543 42.997009 994.76123 45.948914 986.326294 52.906921 C 985.272034 53.75116 980.417969 59.024414 978.944946 59.024414 C 978.102417 59.024414 977.679626 58.601501 974.729614 53.962708 C 967.975037 43.206543 954.905396 42.997009 952.370422 42.997009 C 942.881226 42.997009 935.28833 44.262329 923.476196 56.705261 C 922.210876 57.968689 921.160828 59.024414 920.526184 59.024414 C 919.680115 59.024414 919.680115 58.391968 919.680115 54.804871 L 919.680115 44.471863 C 919.680115 42.573547 919.260864 40.675232 917.360352 40.675232 C 915.887512 40.675232 914.19873 42.785278 912.72168 44.471863 C 906.182922 52.064392 892.685913 57.758972 891.20874 58.180237 C 888.893677 58.813232 888.047485 59.657288 888.047485 60.922791 C 888.047485 63.663269 890.578247 63.663269 893.951233 63.874817 C 900.278809 64.296082 900.278809 68.936951 900.278809 78.848938 L 900.278809 119.341553 C 900.278809 131.151978 900.278809 133.471069 891.20874 134.736511 C 886.570435 135.369385 884.674133 136.211395 884.674133 138.109863 C 884.674133 140.852356 886.993347 140.852356 888.677917 140.852356 C 892.055481 140.852356 900.702087 140.010223 910.402466 140.010223 C 921.160828 140.010223 928.961243 140.852356 931.703735 140.852356 C 933.600037 140.852356 935.711609 140.852356 935.711609 138.321564 C 935.711609 136.423126 934.653809 135.369385 929.384583 134.736511 C 920.737915 133.471069 920.737915 130.940247 920.737915 119.129822 L 920.737915 74.4198 C 920.737915 69.357849 921.368347 65.561462 924.11084 62.609497 C 928.118713 58.180237 932.757507 55.43988 942.246704 55.43988 C 956.80127 55.43988 959.751221 67.250305 959.751221 78.004456 L 959.751221 119.129822 C 959.751221 131.151978 959.751221 133.471069 951.104553 134.736511 C 946.254517 135.369385 944.777466 136.211395 944.777466 138.109863 C 944.777466 140.852356 946.67749 140.852356 948.366211 140.852356 C 951.739563 140.852356 958.48584 140.010223 970.086609 140.010223 C 981.475891 140.010223 988.222046 140.852356 991.599609 140.852356 C 993.072449 140.852356 995.184143 140.852356 995.184143 138.321564 C 995.184143 136.423126 994.130371 135.369385 988.857056 134.736511 C 980.210449 133.471069 980.210449 130.940247 980.210449 119.129822 L 980.210449 73.786926 C 980.210449 69.357849 980.417969 64.928589 983.376282 61.76532 C 985.907043 59.234009 992.018677 54.595703 1001.511719 54.595703 C 1019.224121 54.595703 1019.224121 68.936951 1019.224121 75.052429 L 1019.224121 119.129822 L 1019.224121 119.129822 Z"
      />
      <path
        id="path23"
        fill="#000000"
        fill-rule="evenodd"
        stroke="none"
        d="M 1075.877075 119.551086 C 1075.877075 131.151978 1075.877075 133.471069 1066.811157 134.736511 C 1062.172485 135.369385 1060.483765 136.211395 1060.483765 138.109863 C 1060.483765 140.852356 1062.591675 140.852356 1064.068848 140.852356 C 1067.65332 140.852356 1077.354126 140.010223 1086.212158 140.010223 C 1095.916748 140.010223 1104.982422 140.852356 1108.144165 140.852356 C 1109.621216 140.852356 1111.73291 140.852356 1111.73291 138.321564 C 1111.73291 136.423126 1110.675049 135.369385 1105.405884 134.736511 C 1096.335815 133.471069 1096.335815 130.940247 1096.335815 119.341553 L 1096.335815 51.220215 C 1096.335815 46.581543 1096.335815 43.83905 1094.016724 43.83905 C 1092.328003 43.83905 1085.792847 49.53363 1084.315796 50.587341 C 1080.731323 53.118652 1075.877075 55.861023 1065.75708 59.234009 C 1063.226318 60.078552 1062.380005 61.132324 1062.380005 62.609497 C 1062.380005 65.14032 1065.75708 65.351868 1066.387939 65.351868 C 1073.980835 65.773132 1075.877075 68.72522 1075.877075 79.481506 L 1075.877075 119.551086 L 1075.877075 119.551086 Z M 1097.601318 19.797424 C 1097.601318 13.258606 1092.539551 7.987 1086.004639 7.987 C 1079.04248 7.987 1074.192505 13.68158 1074.192505 19.585693 C 1074.192505 25.703552 1079.254272 30.974854 1086.004639 30.974854 C 1092.962402 30.974854 1097.601318 25.280273 1097.601318 19.797424 L 1097.601318 19.797424 Z"
      />
      <path
        id="path24"
        fill="#000000"
        fill-rule="evenodd"
        stroke="none"
        d="M 1182.037598 119.341553 C 1182.037598 127.98819 1182.037598 133.68277 1171.282959 134.315643 C 1167.067505 134.525299 1163.901733 134.736511 1163.901733 137.900299 C 1163.901733 140.852356 1166.644043 140.852356 1168.117554 140.852356 C 1169.175415 140.852356 1189.207031 140.010223 1193.003296 140.010223 C 1198.276733 140.010223 1225.482178 140.852356 1231.598022 140.852356 C 1286.647461 140.852356 1302.248291 97.196106 1302.248291 74.629456 C 1302.248291 54.174438 1291.493774 33.926941 1274.200439 22.116455 C 1260.703735 12.837341 1245.517944 8.619812 1218.3125 8.619812 C 1198.700073 8.619812 1163.47876 11.571899 1163.47876 17.476135 C 1163.47876 19.164429 1164.532593 19.797424 1166.432861 19.797424 C 1167.909546 19.797424 1174.025391 18.110657 1175.290894 18.110657 C 1179.510498 18.110657 1182.037598 21.062744 1182.037598 29.709412 L 1182.037598 119.341553 L 1182.037598 119.341553 Z M 1204.604126 30.974854 C 1204.604126 19.164429 1205.869629 14.102844 1218.52417 14.102844 C 1263.234497 14.102844 1277.366211 51.85321 1277.366211 75.896973 C 1277.366211 109.638977 1252.47998 135.579071 1224.432495 135.579071 C 1208.188721 135.579071 1204.604126 128.197754 1204.604126 114.700714 L 1204.604126 30.974854 L 1204.604126 30.974854 Z"
      />
      <path
        id="path25"
        fill="#000000"
        fill-rule="evenodd"
        stroke="none"
        d="M 1366.521973 79.481506 C 1366.521973 83.277771 1366.310791 84.964355 1361.25293 87.074402 C 1328.77002 99.938599 1317.596802 109.006134 1317.596802 124.403656 C 1317.596802 127.565277 1318.64624 142.117706 1334.043335 142.117706 C 1343.532471 142.117706 1354.921631 134.315643 1363.779541 127.144012 C 1363.779541 127.144012 1364.83374 126.299438 1365.256714 126.299438 C 1365.891724 126.299438 1366.310791 126.299438 1368.210815 130.30777 C 1370.741577 135.369385 1374.74585 141.69693 1382.973267 141.69693 C 1392.254639 141.69693 1405.116577 131.782806 1405.116577 126.722717 C 1405.116577 126.089874 1404.482056 124.824402 1403.216675 124.824402 C 1402.166748 124.824402 1401.951294 125.033966 1399.635742 126.932281 C 1397.947144 128.197754 1395.835449 129.041931 1393.516235 129.041931 C 1387.612061 129.041931 1386.981323 123.77066 1386.981323 117.231903 L 1386.981323 58.391968 C 1386.981323 49.7453 1382.127075 42.997009 1362.30249 42.997009 C 1330.251221 42.997009 1316.96167 64.717346 1316.96167 71.888611 C 1316.96167 74.629456 1319.28125 76.106506 1321.604614 76.106506 C 1321.812134 76.106506 1334.043335 75.263977 1337.420898 65.773132 C 1339.105469 60.922791 1343.743652 48.05658 1355.979614 48.05658 C 1365.891724 48.05658 1366.521973 58.180237 1366.521973 65.561462 L 1366.521973 79.481506 L 1366.521973 79.481506 Z M 1366.521973 106.265656 C 1366.521973 121.028137 1358.294678 128.619019 1348.805786 128.619019 C 1344.166992 128.619019 1339.31665 124.824402 1339.31665 114.700714 C 1339.31665 110.483185 1339.31665 102.469421 1352.606323 96.141968 C 1355.979614 94.453552 1361.25293 91.713196 1364.203003 91.713196 C 1365.256714 91.713196 1366.521973 91.924438 1366.521973 94.032288 L 1366.521973 106.265656 L 1366.521973 106.265656 Z"
      />
      <path
        id="path26"
        fill="#000000"
        fill-rule="evenodd"
        stroke="none"
        d="M 1506.044556 24.014832 C 1506.044556 20.851135 1506.886597 6.721497 1506.886597 3.76947 C 1506.886597 2.925232 1506.886597 -0.238525 1504.355835 -0.238525 C 1503.302124 -0.238525 1502.036621 0.39447 1501.829102 0.605652 C 1490.439941 6.300232 1482.212524 7.987 1477.7854 8.831543 C 1477.150391 9.041077 1473.98877 9.883118 1473.98877 12.204346 C 1473.98877 14.102844 1476.731201 14.526123 1477.7854 14.735291 C 1484.531616 15.156555 1485.5896 17.056946 1485.5896 23.381958 L 1485.5896 45.737366 C 1485.5896 46.581543 1484.955078 47.426086 1484.112549 47.426086 C 1483.689575 47.426086 1482.423706 47.002808 1481.581665 46.581543 C 1477.996582 44.892761 1470.404175 42.997009 1463.653809 42.997009 C 1439.821167 42.997009 1412.619995 62.188232 1412.619995 94.876465 C 1412.619995 123.138184 1433.286621 142.117706 1457.118652 142.117706 C 1469.138794 142.117706 1476.308228 136.844391 1482.005005 132.205719 C 1482.847046 131.573242 1484.112549 130.728546 1484.955078 130.728546 C 1486.432129 130.728546 1486.85498 132.626984 1486.85498 133.892334 C 1487.48584 141.69693 1488.751343 142.117706 1490.439941 142.117706 C 1491.917114 142.117706 1502.671265 137.688599 1504.779175 136.844391 C 1518.699219 132.205719 1519.122559 131.994019 1519.122559 126.511139 C 1519.122559 125.87854 1519.122559 123.980225 1517.857056 123.980225 C 1516.168335 123.980225 1510.683228 129.463196 1509.210449 129.463196 C 1507.521729 129.463196 1506.044556 128.197754 1506.044556 122.081909 L 1506.044556 24.014832 L 1506.044556 24.014832 Z M 1486.432129 118.285645 C 1486.432129 122.081909 1486.432129 130.30777 1468.719604 130.30777 C 1447.837524 130.30777 1434.971191 112.3815 1434.971191 88.549438 C 1434.971191 60.922791 1450.580078 47.426086 1465.130859 47.426086 C 1486.432129 47.426086 1486.432129 66.40564 1486.432129 75.896973 L 1486.432129 118.285645 L 1486.432129 118.285645 Z"
      />
      <path
        id="path27"
        fill="#000000"
        fill-rule="evenodd"
        stroke="none"
        d="M 1613.682129 77.372009 C 1617.05542 77.372009 1619.374512 77.372009 1619.374512 73.575195 C 1619.374512 66.40564 1612.624146 42.997009 1580.78418 42.997009 C 1552.097534 42.997009 1528.477051 63.242371 1528.477051 94.453552 C 1528.477051 123.77066 1549.56665 142.117706 1577.406616 142.117706 C 1604.189087 142.117706 1618.951172 123.559082 1618.951172 120.395294 C 1618.951172 119.762817 1618.532471 118.497345 1617.05542 118.497345 C 1615.790039 118.497345 1615.578247 118.709076 1612.416626 121.870697 C 1607.354492 126.722717 1598.708252 130.30777 1589.215088 130.30777 C 1567.494507 130.30777 1551.885742 112.1698 1551.885742 88.549438 C 1551.885742 77.583191 1553.786255 77.372009 1557.371216 77.372009 L 1613.682129 77.372009 L 1613.682129 77.372009 Z M 1560.324951 70.8349 C 1555.474976 70.8349 1554.628296 70.8349 1554.628296 68.513611 C 1554.628296 65.14032 1561.167603 47.846863 1580.14917 47.846863 C 1583.310791 47.846863 1597.654175 48.268127 1597.654175 60.71106 C 1597.654175 66.194031 1592.380859 70.8349 1583.310791 70.8349 L 1560.324951 70.8349 L 1560.324951 70.8349 Z"
      />
    </g>
    <g id="g1">
      <path
        id="path28"
        fill="#000000"
        stroke="none"
        d="M 178.968491 348.363647 L 4e-06 348.363647 L 4e-06 8.524353 L 178.968491 348.363647 Z"
      />
      <path
        id="path29"
        fill="#000000"
        stroke="none"
        d="M 357.936981 8.591858 L 178.968491 8.591858 L 178.968491 348.43103 L 357.936981 8.591858 Z"
      />
      <path
        id="path30"
        fill="#000000"
        stroke="none"
        d="M 357.936981 8.591858 L 178.968491 8.591858 L 178.968491 348.43103 L 357.936981 8.591858 Z"
      />
      <path
        id="path31"
        fill="#000000"
        stroke="none"
        d="M 357.936981 8.583435 L 357.936981 347.876373 C 451.630096 347.876373 527.583496 271.923218 527.583496 178.230042 C 527.583496 84.536743 451.630096 8.583435 357.936981 8.583435 Z"
      />
    </g>
  </g>
</svg>
